<?xml version="1.0" encoding="utf-8"?>
<!-- Generator: Adobe Illustrator 24.0.0, SVG Export Plug-In . SVG Version: 6.00 Build 0)  -->
<svg version="1.1" xmlns="http://www.w3.org/2000/svg" xmlns:xlink="http://www.w3.org/1999/xlink" x="0px" y="0px"
	 viewBox="0 0 750 500" style="enable-background:new 0 0 750 500;" xml:space="preserve">
<style type="text/css">
	.st0{fill:#B2BEC3;}
	.st1{fill:#FFFFFF;}
	.st2{fill:#B6A581;}
	.st3{fill:#AD5C31;}
	.st4{fill:#FAD0A0;}
	.st5{fill:#BA876C;}
	.st6{fill:#4A2F1F;}
	.st7{fill:#FFC191;}
	.st8{fill:#2D180C;}
	.st9{fill:#522C16;}
	.st10{fill:#4A3020;}
	.st11{fill:#9EADB2;}
	.st12{fill:#FFC291;}
	.st13{fill:#2A160B;}
	.st14{fill:#492F1F;}
	.st15{fill:#7DA0EE;}
	.st16{fill:#996F58;}
	.st17{fill:#28150A;}
	.st18{fill:#D7C49A;}
	.st19{fill:#B4A481;}
	.st20{fill:#6581C0;}
	.st21{fill:#8E4B28;}
	.st22{fill:#B48865;}
	.st23{fill:#E1F0F6;}
	.st24{fill:#C8D6DB;}
	.st25{fill:#EDDAD0;}
	.st26{fill:#D8C5BC;}
	.st27{fill:#B0A07D;}
	.st28{fill:#F6E2B3;}
	.st29{fill:#482E1E;}
	.st30{fill:#CDDAE0;}
	.st31{fill:#5B3E2F;}
	.st32{fill:#AA7F5D;}
	.st33{fill:#9F532B;}
	.st34{fill:#462D1E;}
	.st35{fill:#884725;}
	.st36{fill:#2B170B;}
	.st37{fill:#BAAB87;}
	.st38{fill:#F2B486;}
	.st39{fill:#B8856A;}
	.st40{fill:#A6572E;}
</style>
<g id="BACKGROUND">
</g>
<g id="OBJECTS">
	<g>
		<g>
			<path class="st0" d="M205.9,245.8c-0.3,0-0.6,0.2-0.8,0.3c0-24.4,0.1-118,0.1-125.4c0-0.3-0.2-0.6-0.6-0.7
				c-0.1-0.2-0.4-0.3-0.6-0.3c-9.3,0-69.2,0-78.3,0c-0.3-0.3-0.7-0.3-1,0c-0.7,0.1-0.9,1.1-0.2,1.4c0,0.4-0.1,122.3-0.1,122.7
				c-0.7-0.6-1.1-0.8-1.8-1.4c-0.3-0.2-0.5-0.5-0.9-0.5c-0.7,0-1,0.9-0.5,1.3c1,0.8,2.1,1.6,3.2,2.4c0,0.8,0,1.8,0,2.6
				c0,1,1.5,1,1.5,0c0-0.3,0-0.8,0-1.1l0-0.5c22.5,15,53.2,14,77.8,2c0,1.3,0,2.4,0,5.5c0,1,1.5,1,1.5,0c0-4.1,0-3.1,0-6.2
				c0.4-0.2,0.8-0.4,1.2-0.6c0.2-0.1,0.3-0.2,0.3-0.4C206.8,246.2,206.4,245.8,205.9,245.8z"/>
			<g>
				<path class="st1" d="M194,146.5c-32.8,0-22,0-60.6,0c-0.8,0-1.5,0.7-1.5,1.5c0,0.8,0.7,1.5,1.5,1.5c15.4,0,30.9,0,46.3,0
					c4.8,0,9.5,0,14.3,0c0.8,0,1.5-0.7,1.5-1.5C195.4,147.2,194.7,146.5,194,146.5z"/>
				<path class="st1" d="M190.7,172.8c-20,0-7.7,0-53.1,0c-1.9,0-1.9,2.9,0,2.9c8,0,47,0,53.1,0c0.8,0,1.5-0.7,1.5-1.5
					C192.2,173.5,191.5,172.8,190.7,172.8z"/>
				<path class="st1" d="M190,200.2c-7.7,0-28,0-35.7,0c-1.9,0-1.9,2.9,0,2.9c11.6,0,23.1,0,34.7,0c0.3,0,0.7,0,1,0
					c0.8,0,1.5-0.7,1.5-1.5S190.7,200.2,190,200.2z"/>
			</g>
		</g>
		<g>
			<g>
				<path class="st2" d="M145.6,79.1C145.7,79.1,145.7,79.1,145.6,79.1C145.7,79.1,145.7,79.1,145.6,79.1z"/>
				<path class="st2" d="M149.7,81.7c-8.5-10.5-25.6-9.9-38.6-6C70.2,88.1,75,120.4,72.1,142.3c0,0,0-0.1,0-0.1
					c0,0.3-0.2,1.1-0.1,1.3c0.1,0.2,0.4,0.3,0.7,0.2c0.6-0.3,1.5-12.7,1.5-13.3c0.8-10.1,1.1-12.3,1.1-12.3c1-7.4,2.6-13.6,6.4-19.9
					c2,2,3.7,3.8,5.4,6c0,0,0,0,0,0c2.4,3.1,4,6,5.3,9c0,0,0,0,0,0c2.8,6.6,3.4,13.3,3.1,20.4c0,0.3,0.2,0.5,0.5,0.5
					c0.3,0,0.5-0.2,0.5-0.5c0.7-15.5-3.4-25.6-14-36c0-0.1-0.1-0.3-0.2-0.3c0.7-1,1.3-2,2.1-3c0,0,0,0,0,0c0.2-0.2-0.1,0.1,0.1-0.1
					c0,0,0,0,0,0C93.1,83,107.6,76.4,121,74.6c0,0-0.1,0-0.1,0c8.2-1.1,18.1-0.5,24.7,4.5c0,0,0,0,0,0c0.1,0.1,0,0,0.1,0.1
					c0,0,0,0,0,0c1.3,1.1,2.5,2.3,3.6,3.6c0,0,0,0,0,0c2.5,3.3,4.3,7.1,6.3,10.7c0.1,0.2,0.4,0.3,0.7,0.2c0.2-0.1,0.3-0.4,0.2-0.7
					C154.1,88.8,152.5,85.1,149.7,81.7z"/>
				<path class="st2" d="M84.4,94.2C84.4,94.2,84.4,94.2,84.4,94.2C84.4,94.2,84.4,94.2,84.4,94.2z"/>
				<path class="st2" d="M149.3,82.8C149.3,82.8,149.3,82.8,149.3,82.8C149.3,82.7,149.3,82.7,149.3,82.8z"/>
				<path class="st2" d="M87.1,104.2C87.2,104.2,87.2,104.2,87.1,104.2C87.2,104.2,87.2,104.2,87.1,104.2z"/>
				<path class="st2" d="M197.2,49.4c-22.5,6.6-29.6,23.7-36.3,44.3c-0.2,0.6,0.7,0.9,0.9,0.3c3.3-10.2,5.2-14.5,5.2-14.5
					c5.4-12.6,12.3-21.9,25-27.3c-1,0.5,8.2-4.4,19.6-3c0.1,1.3,10.8,13.8,13.2,16.9c0,0,0,0,0,0c0,0,0.1,0.1,0.1,0.1
					c2.4,3.2,4.7,6.5,6.4,10.2c0,0.1,0.2,0.2,0.3,0.2c0.1,0,0.3,0,0.4,0c0.1-0.1,0.2-0.2,0.2-0.3c0-0.1,0-0.2,0-0.4
					c-4.2-9.5-13.3-17.5-19.2-26.5c5.6,0.9,10,2.9,10,2.9c8.1,3.4,12.6,7.1,17.5,13.1c0.3,0.3,0.8,0.1,0.8-0.3
					C241.3,63.5,221.8,42.2,197.2,49.4z"/>
				<path class="st2" d="M224.9,66.1C224.9,66.1,224.9,66.2,224.9,66.1C224.9,66.2,224.9,66.1,224.9,66.1z"/>
				<path class="st2" d="M174.9,89.9C174.9,89.8,175,89.8,174.9,89.9C174.9,89.9,174.9,89.9,174.9,89.9z"/>
				<path class="st2" d="M227,106C227,106,227,106,227,106c-1.8-1.5-4.4-6.3-7-9.3c-11.9-13.5-36-24.1-47.6-4.8
					c-0.3,0.5,0.5,1.1,0.8,0.5c0.5-0.9,1.1-1.7,1.7-2.5c0,0,0,0,0,0c2.1-2.6,4.5-4.7,7.7-6.1c0,0,0,0,0,0c9.8-4.1,21.7,0.9,30.1,7.4
					c0,0,0,0,0,0c3.4,2.6,6.2,5.5,7.6,7.4c0,0,0,0,0,0c2.3,3.1,4.5,7,6.2,8.2C227,107.2,227.6,106.4,227,106z"/>
				<path class="st2" d="M212.7,91.2C212.7,91.3,212.8,91.3,212.7,91.2C212.7,91.2,212.7,91.2,212.7,91.2z"/>
				<path class="st2" d="M220.3,98.6C220.3,98.6,220.3,98.6,220.3,98.6C220.3,98.5,220.3,98.6,220.3,98.6z"/>
			</g>
			<path class="st3" d="M182.2,97.7c-0.4-6.4-0.1-6.2-0.6-6.7c-0.3-0.3-0.8-0.5-1.1-0.4c-0.5-0.4-0.6-0.2-4.3-0.2
				c-7.4,0-33.1-2.4-34.7,0.8c-0.2,0.2-0.3,0.4-0.3,0.6c-0.6,4.1-1.1,9.6-0.2,15c1.2,7.9,5.9,11.1,8.1,11.7c0.3,0.2,0.6,0.4,1,0.4
				c5.6,0.1,21.5,1.4,22.6-0.4c1,0.3,4.9-1.2,7.3-4.8c1.2-1.8,2-4,2.3-7.1C182.6,103.5,182.4,100.5,182.2,97.7z"/>
			<g>
				<path class="st4" d="M71.2,143.2c-5.1,0-4.2,7,0.7,6.5c3.1-0.3,4.3-2.3,3.8-4.3C75.3,144.1,73,141.5,71.2,143.2z"/>
				<path class="st4" d="M68.1,137.2c-1-2.2-3.3-3.7-5.4-5c-0.3-0.2-0.7-0.3-1.1-0.3c-1-0.3-2.3,0.3-2.5,1.3c-1,5.3,3.4,7,7.1,8.5
					C67.4,142.2,69.8,140.9,68.1,137.2z"/>
				<path class="st4" d="M98.6,132.4c-0.3-0.2-0.5-0.4-1.1-0.4c-0.3,0-0.6,0.1-0.8,0.2c-5.2-0.1-7.4,5-2.7,5.7
					c2.9,0.5,7.2-1.5,6-4.2C99.7,132.9,99.2,132.7,98.6,132.4z"/>
				<path class="st4" d="M78.9,133.8c-0.4,0.1-0.8,0.4-1,0.7c-2.1,1.5-0.1,4.3,3.5,4.1c1.5-0.1,3.8-1.1,3.8-2.8
					C85.1,133.6,81.8,133,78.9,133.8z"/>
				<path class="st4" d="M70.3,124c2.2-1,2.6-4.7-0.3-6.2c-3-1.6-6.6-0.1-5.8,2.3C63.7,123,67.2,125.3,70.3,124z M67.9,121.1
					C67.9,121.1,67.9,121.1,67.9,121.1C67.9,121.1,67.9,121.1,67.9,121.1C67.9,121.1,67.9,121.1,67.9,121.1z"/>
				<path class="st4" d="M82.6,116.9c-1.6,0.2-3,0.9-4.5,1.6c-0.4,0.2-0.7,0.5-0.8,0.9c-0.6,1-0.3,2.3,1.2,2.8
					c6.2,2.5,11.6-2.1,9.1-4.1C86.1,117,84.9,116.5,82.6,116.9z"/>
				<path class="st4" d="M105.5,116.1c-1.5,0-4.5,0.8-5.1,2c-1.2,1.2-1.1,2.4-0.3,3.2c2.2,2.2,9.7,0.3,9.7-2.6
					C109.7,116.9,107.2,116.1,105.5,116.1z M102.8,121.1C102.8,121,102.8,121,102.8,121.1L102.8,121.1
					C102.8,121,102.8,121,102.8,121.1z"/>
				<path class="st4" d="M78.1,95.4c1.2-2.4-0.5-5.6-4.6-6.1C72,89,70.9,89.8,71,91.7c-0.4,0.6-0.4,1.4,0,2
					C74,98.6,77.3,97.1,78.1,95.4z"/>
				<path class="st4" d="M89.2,92.4c-0.5,0-1.2,0.3-1.6,0.8c-1.9,1.6,0.7,4.9,3,5.8C94.8,100.4,97.9,93.2,89.2,92.4z"/>
				<path class="st4" d="M87.7,88.2c0.7-2.5-2-4.7-4.7-5.1c-1.3-1.1-3.2-0.2-3.2,1.5c0,0.8,0.3,1.6,0.6,2.3
					C82.5,91.3,86.7,91.8,87.7,88.2z"/>
				<path class="st4" d="M78.6,131.2c1.9-0.7,1.7-2.9,0.5-3.5c-1-0.5-1.4-0.5-2.7-0.6C69.5,124.8,65.2,135.9,78.6,131.2z"/>
				<path class="st4" d="M101.6,92.6c2.6-1.2,2.1-6.7-2.5-6.8c-0.5,0-0.9,0.2-1.3,0.5c-1.8-0.6-3.2,1.4-2.3,2.8
					C97,91.4,99,93.7,101.6,92.6z"/>
				<path class="st4" d="M113.1,67.5c-0.1-0.4-0.2-0.7-0.5-1c-0.8-0.8-2-0.7-2.7,0c-1,1-1.3,1.8-1.5,3.1c-0.2,1.3,0.7,3.7,3.6,4.6
					C114.6,74.9,115.7,70.1,113.1,67.5z"/>
				<path class="st4" d="M128.8,65.2c-0.7,0.3-1.2,0.8-1.2,1.8c-0.1,1.2,0.3,2.3,0.8,3.4c2,4.5,7.1,2.6,5.9-3.3
					C133.7,64.4,130.6,63.5,128.8,65.2z"/>
				<path class="st4" d="M120.3,71.7c-2.2,0.7-1.3,4-0.4,6.1c1.1,2.6,3.4,3,4.7,1.6c0.4-0.4,0.6-0.9,0.8-1.4
					C126.9,74.3,123.7,69.8,120.3,71.7z"/>
				<path class="st4" d="M114.1,82.3c-0.2,0.2-0.4,0.4-0.5,0.6c-0.5,0.9-0.1,3.6,1.7,4.8c1.7,1.2,4.5-0.4,4.2-3.5
					c-0.1-1.3-0.7-2.5-1.7-3.4C116.4,79.5,114.4,80.9,114.1,82.3z"/>
				<path class="st4" d="M160.3,68.4c0,1.3,1.6,2.4,2.5,2.8c4.6,1.9,5.5-1,4.7-2.3C165.3,65.4,159.6,65.1,160.3,68.4z"/>
				<path class="st4" d="M185.3,74.6c1.8-0.5,1.8-2.9,0.5-3.5c-1.9-0.9-8.1-2.4-9.7-1c-2.7-0.3-4.4,4.7,3.9,5.2
					C181.2,75.4,183.3,75.2,185.3,74.6z"/>
				<path class="st4" d="M166.4,58.4c-3.4,2.1,2.4,6.4,7.3,4.5C178,61.2,171.9,55,166.4,58.4z"/>
				<path class="st4" d="M186.2,58.5c-1.4,0-2.8,0.6-4,1.2c-0.4,0.2-0.7,0.6-0.8,1c-2.6,1.9-1.7,3.5-0.7,4.1
					c4.9,2.7,9.4-0.9,8.7-4.2C189.1,59.4,187.9,58.5,186.2,58.5z"/>
				<path class="st4" d="M190.6,50.9c-7.7-2.6-10.3,2.1-8.4,3.6c4.7,4,11.6,0.7,9.8-2.2C191.8,51.7,191.2,51.2,190.6,50.9z"/>
				<path class="st4" d="M187.3,82.2c-0.3-0.3-1-0.9-1.7-1.2c-1.4-0.6-2.9-0.8-4.3-0.3c-1.3,0.4-1.8,1.9-1,3
					c0.1,0.4,0.3,0.8,0.5,1.1c0.9,1.1,1.9,1.7,2.9,2c0.6,0.2,1.6,0.3,2.6,0.1c1.9-0.4,2.5-1.7,2.2-2.6
					C188.1,83.1,187.9,82.9,187.3,82.2z"/>
				<path class="st4" d="M232.3,71.6c-1.2,0-3.1,2-3.8,3.1c-0.9,1.4-1.2,4.2,0.3,5c1.1,0.6,2.7-0.1,3.7-0.8c2.4-1.8,2.4-3.7,1.7-4.9
					C234.6,72.7,233.6,71.6,232.3,71.6z"/>
				<path class="st4" d="M239.5,64.2c-0.5,1-0.8,1.5-0.8,2.6c0,1.5,1.8,2.8,3.8,1c0.5-0.4,0.9-1.2,1-2.5c0,0,0,0,0-0.1
					C244.2,63.1,240.5,61.4,239.5,64.2z"/>
				<path class="st4" d="M220.7,66.2c2.3-1,4.9-5.9,1.7-7.1c-0.4-0.5-1-0.7-1.5-0.7c-0.5,0-1,0.2-1.3,0.6
					C215.8,63,218.1,67.8,220.7,66.2z"/>
				<path class="st4" d="M233.5,49.2c-1.7-0.6-2.6,1.1-3,2.9c-0.7,3.5,2,5.3,4.6,1.9c0.6-0.8,1.3-2.6,0.7-3.6
					C235.4,49.6,234.5,49.1,233.5,49.2z"/>
				<path class="st4" d="M227.1,65.7c1.9,1.7,3.9-0.8,4.2-2.4c0.7-4.2-3-5-3.9-2.8C225.1,61.1,225.6,64.4,227.1,65.7z"/>
				<path class="st4" d="M213.7,57.4c-0.1-2-2.9-2.8-3.8-0.5c-0.3,0.9-0.6,1.7-0.6,2.7c0,1.5,1.2,3.3,2.6,3.3c0.7,0,1.3-0.4,1.7-1
					C214.6,60.3,214.3,59.1,213.7,57.4z"/>
				<path class="st4" d="M220.1,46c1-1,0.5-2.8-0.9-3.2c-1.8-0.5-3.8-0.3-4.6,0.2c-1.7,0.6-2.9,1.7-2.4,3.4
					C212.7,48.3,217.1,49,220.1,46z"/>
				<path class="st4" d="M209.3,92.1c-0.8-0.7-1.9-0.7-2.6-0.1c-2.4,0.1-2.2,4-1.3,5.5c0.8,1.4,2.8,1.1,3.3,0c0.7-1.3,0.8-2.4,1-3.4
					C210,93.3,209.7,92.4,209.3,92.1C209.3,92.1,209.3,92.1,209.3,92.1z"/>
				<path class="st4" d="M225.7,98.9c1.3-0.3,2.6-0.8,3.9-1.4c1.8-0.8,0.9-4-1.3-3.6c-1.5-0.5-2.3,0.9-3.6,1.2
					C222.3,95.7,223.1,99.5,225.7,98.9z"/>
				<path class="st4" d="M217.3,100.5c-1,0.3-1.2,0.9-1.9,2.7c-1.4,3.6,1.8,4.6,3,3.2c0.4-0.5,0.8-1,1.1-1.5
					c0.4-0.7,0.7-1.7,0.3-2.4C219.9,101.2,218.6,100.1,217.3,100.5z"/>
				<path class="st4" d="M222.7,110.4c-1.9,0.5-3.4,5.5-0.7,6.3C225.4,117.6,226.6,109.3,222.7,110.4z"/>
				<path class="st4" d="M228.8,104.4c0.3-0.9-0.2-1.9-1.3-2.4c-2.1-3.4-7.2,3.3-5.8,5.6c0.3,0.6,1,1,1.7,1c2.7-0.2,4.4-1.6,5.3-3.6
					c-0.3,1.9,1.9,2.9,3.1,1.8c0.6-0.2,1.5-0.9,2-1.3c0.5-0.4,0.8-0.9,1.2-1.5C236.2,102.3,233.2,98.4,228.8,104.4z"/>
				<path class="st4" d="M210.1,81.5c-1.3,0-1.9,0.2-2.5,0.4c-3.3,0.9-2.1,4.1-0.1,4.1c1.3,0,2.7-0.2,3.9-0.6c0.8-0.2,1.4-1,1.4-1.9
					C212.8,82.1,211.5,81.5,210.1,81.5z"/>
			</g>
			<path class="st5" d="M180.9,94.6c-41,0-40.8-1-40.8,1.6c0,0.9,0.8,1.7,1.7,1.7c0,0,13.6,0.1,39.1,0.1c0.9,0,1.7-0.8,1.7-1.7
				C182.6,95.3,181.8,94.6,180.9,94.6z"/>
		</g>
	</g>
	<g>
		<g>
			<g>
				<path class="st6" d="M688.4,328.6c2.3-6.1,4.4-12.3,6.1-18.6c0.4-1.6-1.9-2.2-2.3-0.6c-1.7,6.3-3.8,12.5-6.1,18.6
					c-0.1,0.3,0,0.7,0.1,0.9C686.6,329.8,687.9,329.8,688.4,328.6z"/>
				<path class="st6" d="M630,336.4c0.4-1.5-1.9-2.2-2.3-0.6c-5.1,17.7-9.7,35.8-14.3,53.9c-1.9,7.7-2.6,8.9-1.1,9.3
					c0.6,0.2,1.3-0.2,1.5-0.8c0.6-2.7,5.3-21,5.8-23.1C622.9,362.2,626.4,349,630,336.4z"/>
				<path class="st6" d="M636.6,335.6c-1.9,0,0.4-1.7-11.8,47c-1.6,6.6-6.1,24.8-6.1,24.9c-0.2,0.6,0.2,1.3,0.8,1.5
					c1.8,0.5,1.2-0.2,7.1-23.7c1.9-7.7,3.9-15.4,5.7-23.1c2-8.3,3.8-16.7,5.4-25.1c0.1-0.3,0.1-0.6-0.1-0.9
					C637.4,335.9,637,335.6,636.6,335.6z"/>
				<path class="st6" d="M688.4,360.8c-4.3-22.9-2.6-24.2-4.6-24.2c-0.7,0-1.3,0.6-1.2,1.2c2.1,20.8,6.2,35,12.6,69.4
					c0.2,0.9,1.6,1.3,2.2,0.3C698,406.3,690.9,374.5,688.4,360.8z"/>
				<path class="st6" d="M683.1,381.2c-1.8-13.2-5.2-43.1-5.7-43.6c-0.5-0.5-1.2-0.5-1.7,0c-0.2,0.2-0.4,0.6-0.4,0.9
					c2.7,20.2,4.6,40,7.9,59.9c0.2,1.3,2.6,1.2,2.3-0.6C684.1,388.9,682.8,379,683.1,381.2z"/>
			</g>
			<g>
				<path class="st0" d="M689.5,326.7c0.1-0.6-0.4-1.3-1.2-1.4c-0.5,0-1,0-1.4,0c-11.5-0.6-15.3,0.6-32.9-0.5
					c-8.4-0.5-19.8-1.3-28.1,1.8c-0.4,0.1-0.6,0.3-0.7,0.6c-0.2,0.3-0.2,0.6-0.1,0.9c0,0.2,0.1,0.3,0.3,0.5c-0.2,2.3-0.2,4.7-0.2,7
					c0,0.5,0.3,0.9,0.7,1.1c0.1,0.5,0.5,0.8,1.2,0.9c23.7,2.5,52.8,0.6,60.3,1.3c0.6,0,1.1-0.4,1.2-1c0.3-0.1,0.7-0.4,0.8-0.8
					c0.5-2.9,0.7-6,0.7-9.4C690,327.3,689.8,327,689.5,326.7z"/>
				<path class="st0" d="M715.7,257.8c-7.6-13.6-32.6-13-33.7-9.5c-30.4,11.5-26.7,55.8-0.3,61.6c3.4,0.8,1.6,0.8,8.3,2.3
					c2,0.5,4.6,1.1,4.6,1.1c0.3,0,0.6-0.1,0.8-0.3c1.3,0.3,1.3-0.4,5.6-10.6l-0.1,0.1c2.4-5.7,16.2-35,15.5-42.8
					C716.6,258.9,716.1,258.5,715.7,257.8z"/>
			</g>
		</g>
		<g>
			<g>
				<path class="st7" d="M522.1,394.6l-0.3,0.2c-0.3-3.2-2.9-6.9-5.7-8.4c0.6-0.4,1.1-0.7,1.7-1.1c0.4-0.2,0.5-0.7,0.3-1
					c-0.1-0.2-0.4-0.4-0.6-0.4c-0.1,0-0.3,0-0.4,0.1c-4.6,2.9-8.8,6.5-13.4,9.5c-0.4,0-0.8,0.5-0.7,0.9c1,3.3,2.5,6.9,5,9.3
					c-0.3,0.6,0.3,1.3,1,0.9c4.9-2.4,9.3-5.8,13.8-8.8c0.4-0.2,0.5-0.7,0.3-1C522.9,394.5,522.5,394.4,522.1,394.6z"/>
				<path class="st7" d="M593.8,393.2c-0.1,0.8-0.2,1.8-0.3,3c-2.2-3.1-7.4-3.3-10.7-0.2c0.1-0.7,0.1-1.3,0.2-2
					c0.1-0.6-0.8-1-1.3-0.5c-0.4,0.4-0.5,4.4-0.5,4.9c-0.3,7.3-0.8,7.3-0.9,8.2c-0.4,0.4-0.2,1.1,0.3,1.2c5.3,1.7,10.1,1.6,11,0.6
					c0.3,0.3,1,0.2,1.2-0.5c1-4.8,2.1-9.8,2.5-14.7C595.3,392.3,593.9,392.1,593.8,393.2z"/>
			</g>
			<path class="st8" d="M686,291.7c0.1-0.9-1.4-1.1-1.5,0c0,0.4,0,0.9-0.1,1.3c-0.3-0.7-1.1-1.8-1.6-2.4c-11.5-13.8-46.1-0.5-47.6,3
				c-18.3,3.1-31.5,0.5-30.5,0.5c-0.9,0-1,1.3-0.2,1.4c1.5,0.3,3.1,0.5,4.6,0.6c-3.6,1.1-5.9,4.3-12.6,8.7
				c-20.3,13.4-10.3,8-47.8,40.6c-1.2,1.1-38.9,33.5-38.4,35c-0.1,1.4,13.8,19.8,15,19.8c0.2,0,0.4-0.1,0.5-0.2
				c1.6-0.2,53.5-40.9,54.8-41.9c-0.2,3.2-0.5,6.5-1,10.2l0.1-0.1c-3.1,22.2-6.7,27.4-4.5,27.4c7.6,3.1,16.2,2.4,24,4.2
				c0.1,0,0.1,0,0.2,0c0.3,0,0.6-0.2,0.7-0.5c0-0.1,0-0.1,0-0.2c0.2-0.1,3.6-14.6,3.6-14.8l0.9-3.9c3.9-16.3,7.6-32.3,10.4-48.7
				c9,0.2,46.1,1.4,62.1-4.9C689,322.4,685.4,303.2,686,291.7z"/>
			<path class="st3" d="M503.1,393.7c-0.4,0.1-0.6,0.5-0.5,0.9c1.2,3.6,3,6.9,4.8,10.1c0.4,0.8,1.7,0.2,1.3-0.7
				c-3.4-6.2-3.8-7.6-3.7-7.3c-1-2.4-0.9-3-1.7-3C503.2,393.7,503.2,393.7,503.1,393.7C512.8,393.7,493.4,393.7,503.1,393.7z"/>
			<g>
				<path class="st3" d="M508.6,403.8c-2.2-2.5-3.9-6-5.2-9.1c0,0,0.1-0.1,0.1-0.1c0.4-0.6-0.3-1.3-0.8-1.1
					c-1.4,0.6-2.7,1.2-4.1,1.8l0.1,0l-0.1,0l0,0c-0.8,0.3-1.6,0.6-2.3,0.9c-0.2,0.1-0.3,0.2-0.4,0.3c-1.7-0.3-3.3-0.8-4.9-1.5
					l0.2,0.1c-3.2-1.4-6.2-3.5-8.9-5.5c-0.2-0.2-0.8-0.1-1,0.3c-0.2,0.3-0.1,0.6,0.1,0.8c-1.1,1.5,6.6,15.3,15.8,20.1
					c0.3,0.3,0.6,0.6,1,0.6c0.3,0.3,0.6,0.3,0.9,0.1c3.4-1.5,6.8-3.8,9.6-6.2c0.2-0.2,0.3-0.4,0.2-0.7
					C508.9,404.4,508.8,404.1,508.6,403.8z"/>
				<path class="st3" d="M593.5,407.6c0.1-0.4-0.2-0.9-0.7-0.9c-2.5,0.3-6.4-0.1-5.7-0.1c-2.3-0.3-4.6-0.9-6.6-1.3
					c-0.3-0.1-0.6,0-0.7,0.2c-0.2,0.1-0.4,0.3-0.4,0.5c-0.4,2.2-1.1,4.4-1.6,6.5c-0.2,0-0.3,0-0.4,0.1c-1.3,0.7-2.9,1.4-2.9,1.4l0,0
					c-4.6,1.9-10.2,3.2-15.1,4c-0.5,0.1-0.7,0.8-0.5,1.2c0.6,1,11.8,1.6,17,1.5c1.9,0,16.5-0.8,17.3-1.5c0.2-0.2,0.3-0.5,0.2-0.8
					c0.6-3.7-0.1-6.5,0.3-10.1C593.7,408,593.7,407.8,593.5,407.6z"/>
			</g>
			<path class="st9" d="M603.3,339.4c-3.9,3.4-7.9,6.6-12,9.8c0,0,0,0,0,0c-3,2.3-6.1,4.6-9.3,6.8c-0.6,0.4,0,1.2,0.5,0.8
				c7.4-5.2,14.6-10.9,21.5-16.8C604.4,339.7,603.8,339,603.3,339.4z"/>
		</g>
		<g>
			<path class="st10" d="M478.2,311.1c0,14.1-0.1,100.1-0.1,114.2c0,1-0.1,1.7,0.6,2.4c1.4,1.4,3.7,0.3,3.8-1.5
				c0-35.4,0-38.2,0.1-111.1c0-3.5,0.3-4.6-0.6-5.6C480.6,308.1,478.2,309.2,478.2,311.1z"/>
			<path class="st10" d="M490,310.4c0,7.2,0,12.8,0,20c0,2.9,4.4,2.9,4.4,0c0-7.2,0-12.8,0-20C494.4,307.5,490,307.5,490,310.4z"/>
			<path class="st10" d="M606.6,312.4c0,0-0.1,112.2-0.1,112.2c0,0.4,0,2.2,0,2.6c0,2.9,4.4,2.9,4.4,0l0-6c0-10.5,0,2.8,0.1-108.8
				C611,309.5,606.6,309.5,606.6,312.4z"/>
		</g>
		<g>
			<g>
				<path class="st0" d="M627.4,318.2c-0.1-1-3-14.7-3.6-17.5l-0.3-1.4l0-0.2l-0.3-1.3c-4.9-23.1-23.5-113.5-23.5-113.6
					c0.5-0.4,0.2-1.7-1-1.8c-8.7-0.3-112.6-0.2-113.3,0.2c-0.1-0.2-0.7-0.2-1.1,0.1c-0.6,0.6-14.2,133.7-14.4,135.5
					c-0.2,1.2,0.6,1.7,1.2,1.4c0.1,0.3,153.4,0.9,154.6,0.4c1,0,1.8,0,1.9-1.2C627.7,318.8,627.6,318.5,627.4,318.2z"/>
				<path class="st0" d="M480.4,214.4c0,0.2,0,0.5,0,0.7C480.6,214.9,480.6,214.6,480.4,214.4z"/>
			</g>
			<rect x="470.2" y="318.8" class="st11" width="157.5" height="9.9"/>
		</g>
		<path class="st12" d="M562.4,256c-0.8,0.5-1.3,1-1.5,1.9c-0.1,0.4,0.1,0.8,0.5,0.9c0.5,0.2,0.8,0.7,1.3,0.5
			c0.4-0.1,0.6-0.4,0.5-0.9c-0.1-0.3-0.4-0.5-0.7-0.7c0.1-0.1,0.3-0.3,0.4-0.4c0.1,0,0.1-0.1,0.2-0.1c0.2-0.1,0.3-0.2,0.3-0.4
			C563.7,256.2,562.9,255.7,562.4,256C572.1,256,552.8,256,562.4,256z M561.5,258.8C561.6,258.9,561.7,258.9,561.5,258.8
			C571.2,258.8,551.9,258.8,561.5,258.8z"/>
		<path class="st12" d="M561.6,258.7c-0.2,0.9-0.3,2.1,0.6,2.1c0.4,0,0.8-0.3,0.7-0.7c0-0.2,0-0.4,0-0.6c0-0.1,0.1-0.3,0.1-0.4
			c0.1-0.4-0.1-0.8-0.5-0.9c-0.1,0-0.1,0-0.2,0C562,258.1,561.7,258.3,561.6,258.7C571.3,258.7,552,258.7,561.6,258.7z"/>
		<g>
			<path class="st13" d="M586.2,222.4c-4.8-0.8-29.5-5.1-30.7-4.5c-4.7-9.3-9.7-18-15.5-24c-0.2-0.2-0.5-0.3-0.8-0.2
				c-0.3,0-0.5,0.1-0.6,0.4c-2.2,4.5-8.6,16.3-18.4,31.8c-1.3,2-2.5,4-3.8,6c-0.1,0.2-0.1,0.4,0,0.6c0,0.1,0,0.1-0.2,0.3
				c5.1,7,15.2,18.5,22.5,29.3c0.1,0.1,0.2,0.3,0.4,0.3c0,0.6,0.1,0.3,13.2,3c1.3,0.3,22.8,4.7,24.1,4.1c0.5,0.1,0.8-0.2,0.9-0.8
				c2.2-15.3,8.8-29.7,9.4-45.2c0.1-0.1,0.1-0.2,0.1-0.3C586.9,222.9,586.6,222.5,586.2,222.4z"/>
			<path class="st14" d="M582.8,226.6c-0.1-1.1-0.6-0.2-12.7-1.8c0,0,0,0,0,0c-7.5-1-13.6-2.3-13.6-2.3c-0.2,0-0.3,0-0.5,0.1
				c-0.3,0.1-0.5,0.2-0.6,0.5c-3,11.7-12.1,33.9-12.1,33.9c-0.2,0.1-0.4,0.4-0.4,0.6c0,1,0.9,0.6,4.4,1.1c0,0,0,0,0,0
				c8.3,1.2,16.3,3.7,24.4,6.1c0.1,0,0.2,0,0.3,0c0.4,0.5,1,0.3,1.2-0.3C580.1,245.8,583.8,227.5,582.8,226.6z M572.2,263.6
				c-1-0.3-16.3-5.4-27.2-6.4c5.6-14.1,9.3-23.1,11.9-33.1c7.7,1.6,17,2.9,24.8,3.4C579.8,239.7,576.3,251.9,572.2,263.6z"/>
			<path class="st1" d="M552.4,219c0-1.9-11.2-18.8-12.6-18.8c-0.2,0-0.4,0.1-0.5,0.2c-0.3,0-0.5,0.1-0.6,0.4
				c-6.4,12.1-12.4,20.7-17.7,31.1c-0.3,0.2-0.4,0.7-0.1,1.1c2.5,2.9,4.8,6,7.2,9.3l0.1,0.1c7.5,10.3,9.1,12.1,9.7,10.5
				c0.2-0.1,0.3-0.3,0.3-0.4c2.2-5.5,4-9.9,5.7-14l-0.1,0.1c2.9-6.7,4.8-10.7,6.9-15l0.3-0.6C552.4,219.9,552.8,219.6,552.4,219z"/>
		</g>
		<g>
			<g>
				<path class="st1" d="M570.1,193.2c-1-0.8-1.4-1-2-1.2c-0.8-0.3-2-0.3-3.1,0.1c-1.1-0.8-7.4,6,0.1,7.1c0.9,1.3,2.2,1.2,3.5,0.4
					c0.2-0.1,0.3-0.3,0.4-0.6C571.6,198.6,573.6,196.2,570.1,193.2z"/>
				<path class="st1" d="M580.1,193c-5,1.9-3,9.4,2,8.2c2-0.5,3.1-2.2,3.3-4.3C585.8,193.7,583.4,190.8,580.1,193z"/>
			</g>
			<path class="st10" d="M577,194.5c-1.9-0.7-3.5-0.7-5.3-0.3c-2.3-5.6-11-4-9.9,2.8c0.2,1.2,0.9,2.3,2,3.1c1,0.7,2.6,1,3,0.8
				c1.8,0.5,5.8-1.3,5.3-5.3c1.7-0.4,3-0.3,4.5,0.3c-0.5,3.2,1.6,5.1,3.3,5.2c0.6,0.8,3.4-0.2,4.3-0.8c0.8-0.5,1.4-1.2,1.9-2.1
				C589,192.4,579.7,188,577,194.5z M570.4,197.5c-0.6,1.3-1.8,2.1-3.5,2c-0.1,0-0.2,0-0.2,0c-0.1,0-0.3,0-0.5-0.1
				c-2.3-0.3-3.3-2-3-4.1C564.1,189.8,572.3,192.5,570.4,197.5z M580.5,199.9c-0.2-0.2-0.7-0.3-1-0.4c-2.3-1.1-1.8-4.6,0.1-6.1
				c1.9-1.4,5-0.4,5.5,2.2C585.3,197.8,583.7,199.8,580.5,199.9z"/>
		</g>
		<g>
			<path class="st15" d="M488.9,284.6C489,284.6,489,284.6,488.9,284.6C489,284.7,489,284.6,488.9,284.6z"/>
			<path class="st15" d="M497,290.9C497,290.9,497,290.9,497,290.9C497,290.9,497,290.9,497,290.9z"/>
			<path class="st15" d="M494.2,290.2L494.2,290.2C494.3,290.2,494.3,290.2,494.2,290.2z"/>
			<path class="st16" d="M529.3,269.5c0.3-0.1,0.4-0.4,0.3-0.7c-0.3-0.5-0.5-1-0.8-1.4c0,0-0.1-0.1-0.1-0.1c0,0,0-0.1,0-0.1
				c-0.1-0.2-0.3-0.4-0.5-0.4c0,0-0.1,0-0.1,0c-0.1,0-0.3,0.1-0.4,0.2c-1.6-2.8-5.3-4.7-7.5-2.4c-1-0.6-2.1-0.9-3.3-0.7
				c-5.5,1-2.2,10.6-1.5,14.9c0.6,4.4-1.2,7.1-4.4,8.2c-0.2-0.4-0.2-0.7-0.6-0.7c-0.1,0-0.9,0.2-1,0.2c-0.2,0-0.4,0-0.6,0.1
				c-0.3,0-0.9,0.2-1,0.5c-0.3,0-0.5,0.2-0.5,0.6c-10.8,0.2-12.4-9.1-9.6-14.6c0,0.3,0,0.5,0.3,0.6c0,0,0,0,0,0
				c0,0.2,0.3,0.4,0.5,0.4c0.7,0,0.5-1.1,0.4-1.8c1.5,1.6,4.1-0.9,2.6-2.6c-0.5-1.4-2-0.6-3.1,0.5c-0.1,0-0.1,0-0.2,0
				c-0.7-0.1-0.6,0.6-0.6,1.3c-2.6,0.5-5.7,17.7,9.8,17.1c0,0,0,0.1,0,0.1c-3.2,1.9-7,2.6-10.3,2.2c0,0,0,0,0,0
				c-1.7-0.3-2.8-0.8-2.6-0.7c0,0-0.1-0.1-0.1,0c-2.5-1.1-4.2-3-5.3-5.6c0,0,0,0,0,0c-1.1-2.7-1.3-5.5-0.9-8.4
				c0.2,0.7,1.2,0.4,1-0.3c1.7,0,3.2-1.7,2.3-2.6c-0.4-1.4-2.5-2-3.7,0.8c-0.1,0.1-0.2,0.2-0.2,0.3c-1.3,5.8-0.2,12.3,4.6,15.7
				c4.4,3.1,11.2,2.2,15.8-0.5c0.8,0.7,1.9,0.3,2.7-0.4c0.3-0.1,0.6-0.2,0.6-0.5c0.1-0.2,0-0.6,0-0.8c11.7-4.4-1.2-19.9,5.4-22.9
				c1-0.4,2-0.2,3,0.3c-0.9,1.3-1.7,3.6-1.4,5.6c0.4,2.7,3.5,3.1,4.7,1.3c0.9-1.3,0.9-4.9-1.8-7.1c1.6-1.5,4.5,0,5.9,2.3
				c-0.4,0.2-0.4,0.4-0.3,0.7c0.3,0.6,0.6,1,1,1.4c0.1,0.2,0.3,0.3,0.5,0.4c0.1,0,0.2,0.1,0.3,0.1c0.1,0.1,0.2,0.1,0.4,0.1
				c0.1,0.2,0.2,0.4,0.3,0.6c0.2,0.3,0.5,0.3,0.7,0.2C530.1,270.5,529.6,270,529.3,269.5z M520.3,265.8
				C520.3,265.8,520.3,265.8,520.3,265.8C520.3,265.8,520.3,265.8,520.3,265.8C520.3,265.8,520.3,265.8,520.3,265.8z M521.3,272.2
				c-0.8,0.3-1.7,0.1-2.2-0.9c-0.6-1.6,0.1-4,1.1-5.5C523,268.1,522.5,271.6,521.3,272.2z M527.6,268.2
				C527.6,268.2,527.6,268.2,527.6,268.2C527.6,268.2,527.6,268.2,527.6,268.2C527.6,268.2,527.6,268.2,527.6,268.2z"/>
		</g>
		<g>
			<path class="st1" d="M556.4,285.8l0-0.1c-0.1-2-0.2-4.8-0.1-7.4c0-0.3-0.3-0.6-0.6-0.6c-0.1,0-0.1,0-0.2,0.1
				c-2.9-1-23.5,0-30.1,0c-1.6-1.6-0.9,6.9-0.9,14.5c0,0.3,0.2,0.5,0.5,0.6c-0.2,0.7,0.7,0.3,10.8,0.3c1,0,18.9-0.1,19.9-0.9
				c0.5,0,0.7-0.2,0.7-0.5C556.5,289.6,556.5,287.6,556.4,285.8z"/>
			<path class="st17" d="M553.5,290.6c0,0-0.4-8.7-0.5-10.7c0-0.4-0.5-0.7-0.8-0.4c-0.3-0.3-16.7-0.9-25.1,0.8
				c-0.3,0-0.5,0.2-0.5,0.5c0,3.2,0.3,6.5,0.3,9.8c0,0.1,0.1,0.3,0.2,0.4c0,1.3,13.2-0.2,20.5,0.5c1.9,0.2,3.8,0.4,5.6-0.2
				C553.4,291.1,553.6,290.8,553.5,290.6z"/>
		</g>
		<path class="st7" d="M555.2,283.6c-1-0.6-2.2,0.7-1.4,1.7c0.1,0.2,0.2,0.3,0.3,0.3c0.4,0.4,1.4,0.3,1.7-0.4
			C556.1,284.7,555.9,284,555.2,283.6z"/>
		<g>
			<g>
				<path class="st18" d="M519.1,91.1c0-0.3-0.2-0.5-0.5-0.5c-0.2,0-0.4,0.1-0.4,0.2c-1.4,2.6-2.8,5.4-4.2,8.3
					c-1.3,2.8-2.5,5.6-3.7,8.3c-13.3,32.1-6.8,72.9-5.4,72.9c0.3,0,0.5-0.3,0.5-0.6c-0.1-0.4,0-0.2-0.1-0.6c0.6-1,1-4.5,1.1-5.5l0,0
					C507.9,163.8,520.7,123.4,519.1,91.1z"/>
				<path class="st18" d="M545.9,125.1c-0.7,0-4.8,4.8-5.2,5.3c-2.9,3.5-5.8,7.7-8.3,11.5c0.3-2.1,0.5-4.3,0.4-6.5
					c0-0.2-0.2-0.4-0.4-0.5c-0.2-0.1-0.4,0-0.6,0.2c-1.7,2.7-3.5,5.4-5.3,8c-0.1,0.1-0.1,0.1-0.6,0.9c-0.9,1.4-1.9,2.8-2.8,4.2
					c-5.9,9-11.7,18.8-13.1,29.3c0,0.1-0.1,0.2,0,0.3c0,0.4-0.2,0.7,0.1,1c0.2,0.2,0.5,0.2,0.7,0c0.2-0.2,0.2-0.7,0.2-0.9
					c0.7-1.2,0.4-0.7,2.6-3.5c-0.2,0.5-0.4,1-0.5,1.6c0,0.1-0.6,2.1-1,3.2l-0.3,1c0,0.1,0,0.2,0,0.4c0.2,0.4,0.8,0.3,0.9-0.1
					l0.2-0.7c0.3-0.1,0.7-0.9,0.9-1.1c1-0.1,8.3-6.6,11.3-9.8c11.2-12.1,16.9-27.2,21.2-43.1C546.4,125.4,546.2,125.1,545.9,125.1z"
					/>
			</g>
			<g>
				<path class="st4" d="M537.3,96.2c-0.3,0-0.6,0.4-0.8,0.7c-0.4,0.5-0.6,0.8-1.1,1.1c-0.3,0.2-0.4,0.3-0.8,0.6
					c-1.2,0.9-2.2,2-3.2,3.1c-4.7,5.4-8.5,13.6-11.4,20.1c-3.9,8.5-14.7,27.6-13.4,55.8c0,0.2,0.1,0.4,0.3,0.5
					c-0.3,0.8-0.6,1.7-1,2.5c-0.2,0.6,0.7,0.9,1,0.3c1.1-3,4.1-10.8,5.3-13.4c5.6-13.3,11-19.6,25.7-70.6
					C537.9,96.5,537.7,96.2,537.3,96.2z"/>
				<path class="st4" d="M500.1,177.2c-2.2-5.7-0.2-17.1-23.7-52.2c-0.1-0.2-0.3-0.2-0.4-0.2c-0.3,0-0.5,0.2-0.5,0.5
					c0.1,1.9,0.4,3.7,0.8,5.8c0.2,1,0.3,2,0.5,3.1c0.5,2.6,1.1,5.2,1.9,7.8c3.8,13.1,10.7,25.5,20.6,36.3c0.4,0.4,1.1-0.1,0.7-0.7
					C500.1,177.5,500.2,177.3,500.1,177.2z"/>
				<path class="st4" d="M496.4,87.9c0-0.2-0.2-0.4-0.4-0.5c-0.3-0.1-0.5,0.1-0.6,0.2c-14,27.2-0.4,66.5,6,89.8
					c0,0.2,0.2,0.3,0.3,0.3c0.3,0.6,0.6,1.1,1,1.5c0,0.1,0.1,0.2,0.3,0.3c0.1,0.1,0.2,0.1,0.3,0.1c0.7,0,0.6-1.2,0.5-2
					C505.5,146.2,498,117.1,496.4,87.9z"/>
			</g>
			<g>
				<path class="st19" d="M497.8,173.8C497.8,173.8,497.8,173.8,497.8,173.8c-3.3-7.9-0.2-2.2-7.3-16.2c-4.7-9.3-9.1-18.4-12.6-27.8
					c-0.3-0.7-1.1-0.3-0.9,0.3c0.1,0.4,2.4,6.1,2.6,6.5c5.6,13.2,12.9,26.7,14.6,30.5c-0.3-0.7,2.9,7.9,4.5,10.6
					c0.3,0.5,1.2,0.1,0.8-0.5C498.8,176,498.3,174.9,497.8,173.8z"/>
				<path class="st19" d="M495.5,131.9c0,0,0,0.1,0,0.1c-1.8-13.7-0.4-24.4,0.1-38.2c0-0.6-0.9-0.7-1,0c-1.5,38.3-2,27.3,4.3,63
					c0.1,0.8,0.3,1.6,0.4,2.4c1.3,6.6,3.2,13.5,3.8,20.2c0.1,0.7,1,0.6,1,0C503.5,172.5,497.3,145.2,495.5,131.9z"/>
				<path class="st19" d="M533.2,103.4C533.2,103.4,533.2,103.4,533.2,103.4C533.3,103.3,533.3,103.3,533.2,103.4z"/>
				<path class="st19" d="M524.6,124.6c-0.7,1.4,8.6-18.7,9.9-21.7c0-0.1,0-0.3,0-0.4c-0.2-0.3-0.7-0.4-0.9,0.1c0,0-0.3,0.8-0.3,0.8
					c0,0,0,0,0,0c-4.1,9.6-9.1,18.6-12.4,28.4c-4.8,14.3-9.3,25.7-12.3,38.3c-0.1,0.5-2,8.6-1.7,9.1c0.2,0.4,0.8,0.3,0.9-0.1
					c2-12.2,5.9-23.3,9.7-34.4C522.6,130.1,522.2,130.3,524.6,124.6z"/>
				<path class="st19" d="M541.4,133.5c-0.3,0.1-0.6,0.7-0.8,1c-9.1,14.7-19.6,28.6-27.1,43.7c-0.3,0.6,0.6,1,0.8,0.5
					c7.3-14.7,17.4-28.1,26.5-42.8c0.2-0.3,0.9-1.4,1.1-1.7C542.1,133.9,541.8,133.4,541.4,133.5z"/>
			</g>
			<path class="st15" d="M519.1,191.7c-1,0-1.9,0-2.9-0.1c0.3-4.5-0.1-9.2,0.1-14c0-0.1,0-0.3-0.1-0.4c-0.2-0.3-0.6-0.3-0.9-0.3
				c-7.4-0.6-13.8-1.2-19.8-0.5c-0.2-0.1-0.4-0.1-0.6,0.1c-0.2,0.2-0.3,13.5-0.3,13.8c-0.9,0-2.5,0-3.4,0c-0.4,0-0.7,0.5-0.4,0.8
				c-0.3,0.6,1.6,3.6,2,4.2c0.2,0.4,0.6,1.1,1,0.9c7.3,2.2,22.5,1.8,22.8,0.8c0.3-0.3,2.7-4.1,2.7-4.6c0.1,0,0.3-0.1,0.4-0.4
				C519.8,192,519.4,191.6,519.1,191.7z"/>
		</g>
		<g>
			<g>
				<path class="st12" d="M589.5,260.5c0.1-0.2,0-0.6-0.2-0.7c-2.7-2.2-4.8-3.9-7-5.5c-2-3.3-4.6-5.3-8.1-6.8
					c-0.2-0.1-0.4-0.1-0.6-0.1c0,0-0.1,0-0.1,0c-0.7,0-1,0.7-0.6,1.2c0.6,0.7,1.3,1.4,2,2.1c-4.5-0.9-8.2,1.1-13.4,3.1
					c-0.2,0.1-0.3,0.2-0.4,0.3c-0.3,0.3-0.4,0.4-0.7,0.8c-0.3,0.4,0,1.1,0.6,1.1c0.4,0.1,0.6,0.2,1,0.3l0.1,0c0,0,0,0.1,0,0.1
					c-0.2,0.6-0.1,1.1,0.4,1.5c-0.1,0.1-0.3,0.2-0.4,0.2c-0.1,0-0.2,0.1-0.3,0.2c-0.1,0.1-0.2,0.3-0.2,0.5c0,0.2,0.1,0.4,0.2,0.5
					c0.1,0.1,0.3,0.2,0.5,0.2l0.1,0l0.1,0c-0.6,0.8-0.7,1.7-0.3,2.6c-0.1,0.2-0.1,0.4-0.1,0.6c0.1,0.3,0.4,0.5,0.7,0.5
					c0.1,0,0.1,0,0.2,0c0.9-0.2,1.8-0.5,2.6-0.7c11.3-3.4,8.2,2.9,20.4,5C586.9,269.5,592,264.8,589.5,260.5z M563.5,261.8
					C563.5,261.8,563.5,261.8,563.5,261.8C564.1,261.6,564.2,261.6,563.5,261.8z"/>
				<path class="st12" d="M600.2,235.1c0.3-1.3-0.4-3.3-1-4.5c0.7-0.2,0.5-1.2-0.1-1.4c-11.4-2.4-18.1-7.2-24.5,7.6
					c-0.2,0.5-0.4,0.8-0.2,1.2c0.2,0.3,0.6,0.5,0.9,0.3c0.3,0.1,0.5,0.1,0.8,0.2c0,0.1,0,0.3,0,0.4c0,0,0,0,0-0.1
					c-0.1,0.6,0.3,1,1.2,0.8c0.1,0.4,0.4,0.8,0.9,0.8c0.2,0,0.4-0.1,0.6-0.2c0.3,0.3,1.1,0.2,1.4,0c0.1,0.1,0.3,0.2,0.5,0.2
					c0.7,0,0.7-0.6,2.8-4.4c1-0.1,0.1-1.7,4.9-1.1l-0.1,0c0.4,0.1,0.9,0.2,1.3,0.3c-1.3,1.5-3.8,3.4-3.8,3.4
					c-0.3,0.5,0.1,1.1,0.6,1.1c0.9,0.6,7.6-2.3,9.4-2.8c0.1,0,0.2,0,0.4,0c0.2,1.3,2.4,0.7,3.2-0.2c0.5-0.1,1.2-0.1,1.5-0.5
					C601.3,235.7,600.9,235.1,600.2,235.1z M592,236.7c0.1-0.1,0.1-0.1,0.2-0.2c0.1,0,0.1,0,0.2,0
					C592.3,236.6,592.2,236.7,592,236.7z"/>
			</g>
			<path class="st12" d="M664.3,181.2c0.7-0.6,0.3-1.7-0.7-1.7c-0.2,0-0.6,0.1-0.8,0.1c-0.7,0.1-1.3,0.1-2-0.2
				c-2.9-1.4-2.3-7-2.5-11.1l0,0l0,0c0,0,0,0,0.1-0.1l0,0h0c1.4-2.2,7.1-6.5,4.9-11.4c-0.4-0.8-0.9-1.4-1.6-1.8
				c-0.4-0.2-0.8-0.3-1.2-0.4c-0.1,0-0.3,0-0.4,0c-0.3,0-0.6,0-0.9,0.1c-0.7,0.1-1.5,0.4-2.4,0.9c-0.9,0.5-1.8,1.2-2.5,1.9
				c-6-9.1-6.2-16.9-18.4-13.7c-0.3-0.1-0.6-0.1-0.8,0.1c-1.6,1.2-2.9,2.6-4,4.6c-2.8,5.3-2.4,12.6-2.1,18.6c0,0.1,0.2,4.9,0.2,4.9
				c-0.2,0.4,0.1,1.2,0.7,1.3c0.9,0.2,1.6,0.2,2.4,0.2c0,0,1.4,3.2,1.4,3.2c-0.1,0.1-0.1,0.3-0.2,0.4c-0.2,0.1-0.3,0.2-0.3,0.4
				c-0.3,0.7-0.7,1.5-0.2,2c0,0.6,0.5,0.9,0.9,0.7c0.2-0.1,0.3-0.2,0.4-0.3c0,0,0,0,0,0c0,0,0,0-0.1,0.1c0,0,0-0.1,0.1-0.1
				c0.2,0.2,0.5,0.2,0.8,0c3.1,6.3,7.6,9.5,15.1,8.1c0.7,1.3,1.3,3,1.8,6.1h0l0,0l0,0c0,0.1,0,0.1,0,0.2l0-0.2
				c0.1,0.8,0,1.6,0.8,1.8c0,0.4,0.3,0.7,0.7,0.8c1.1,0.3,2.1,0.4,3.1,0.5c2.3-1,4.4-1.6,6.2-1.9c0.9-0.7,1.6-1.4,2.5-2.7
				C666.5,192.1,665.2,190.6,664.3,181.2z"/>
			<path class="st3" d="M692.1,285.9c-0.2-14.1-4-56.1-9.8-72.3c-2.3-6.6-5.7-12.9-10.8-17.7c-0.4-0.3-0.9-0.3-1.1,0.1
				c-5.7-3-15,1.1-20.5,4.4c0.2-0.6-0.6-1.2-1.2-0.7c-1.3,1.1-2.4,2.4-3.4,3.9c-0.3,0.2-0.5,0.4-0.5,0.8c-2.9,4.5-4.8,10.2-6,15.5
				c-5.7,4.3-12.1,7.1-20.4,8.2l0.1,0c-6.5,0.8-12.8,0.5-19.3-0.3c0,0,0,0,0,0c-0.4-0.1-0.6-0.1-0.9,0.2c-0.8,0.1-0.5,0.9-0.8,3
				c-0.8,5.8-2.4,8.1-0.8,8.1c12,8.4,25.8,10.5,39,4.2c-0.1,1.1-0.2,2.3-0.3,3.4c-14.8,10.4-27.7,15.8-45.5,11.2
				c-0.5-0.5-1.4-0.1-1.3,1.3h0c-0.5,3.5-1.7,6.8-2.8,9.9c-0.1,0.2,0,0.5,0.2,0.7c0.1,3.4,23.9,20.6,49.4,10.7
				c-0.1,3.4-0.1,7.4-0.7,12.6c0,0.1,0,0.2,0.1,0.4c0,0.2,0,0.4,0.1,0.5c0.1,0.2,0.3,0.3,0.5,0.3c9.3,3.7,18-1.4,28.2,0.1
				c1.7,0.2,3.3,0.5,4.8,0.8c3.5,0.7,8.4,1.4,12.2,1.2c3.5-0.2,9.2-1.5,11.1-4.7C692.7,289.7,692.5,286.4,692.1,285.9z"/>
			<g>
				<path class="st8" d="M672.4,148c0-0.2-0.2-0.4-0.2-0.6c-1.6-3.4-1.6-4.7-2.7-7.1c-3-6.5-12.4-9.1-19.4-10.1
					c-7.3-1.1-31.4,5.5-22.7,12.4c-1.9,2.7-1.1,7.1,2.7,7.2c0,0.1,0.1,0.3,0.2,0.4c3.8,3.5,9.9-0.7,14.5-2.6l-0.1,0l0.1,0l0,0
					c0.3-0.1,0.7-0.3,1-0.4c0,0.1,0,0.2,0.1,0.3c1.5,3.1,3.1,6.9,3.7,10.4c0,0-0.2,7.3-0.7,11l0-0.1c-0.1,0.4-0.1,0.9-0.2,1.3
					c-0.2,0-0.3,0.2-0.4,0.3c-0.3,0.5-0.6,0.9-0.9,1.3c-2.4,3-4.4,3.3-5.4,3.6l0,0c-0.1,0-0.3,0-0.4,0c-0.6-0.2-1.2-0.4-1.8-0.7
					c0.7,0.3-1.6-0.8-3.1-1.2c-1-0.3-2-0.3-2.8-0.2c-2.5-0.3-3.6,2-3.3,4.6c-0.3,0.4-0.1,1.5-0.1,2c0,2.4,2.1,6.9,2.5,7.9
					c0.6,1.5,1.5,2.7,3,3.1c2.1,2.1,8,2.5,10.8,1c3.5-1.9,4.6-7.8,5-11.7c0.1-0.6,0.5-6.3,0.2-6.8c0.9-4.7,1-9.7,1.8-14.1
					c0,0,0.1-0.1,0.1-0.1c6.8-8.8,15.7,0,4.6,8.3c-0.3,0.2-1,0.8-1.1,1.1c-0.2,0.1-0.3,0.4-0.3,0.6c-0.1,3.6-0.1,11.4,3.3,10.2
					c0,0.4,0.4,1,1.1,1.1c0.2,0,0.4,0.1,0.6,0.2c0.5,1.4,2.2,1.3,2.4,0.5c4.9-2.4,9.1-5.4,11.5-15.1c0.5-2.1,0.8-4.3,0.9-6.4
					C676.7,152.8,673.6,148.6,672.4,148z M639.1,178.1c-1.7,1.2-4,1.1-5.8,0.2c0-0.2,0-0.3,0-0.4c0.2,0.1,0.6,0,0.8-0.5
					c1.9,0.3,3.6,0,5,0.6L639.1,178.1z"/>
				<path class="st8" d="M632.3,160.1c0.1,0.4,0.5,0.6,0.9,0.5c2-0.5,4,0,6.9-0.2c2.1-0.1-0.1-3.3-6-2.2c-1.1,0.2-2.8,0.7-2.2,1.6
					C632,159.9,632.1,160,632.3,160.1z"/>
			</g>
			<path class="st15" d="M672.8,195.1c0.8-1.6,0.3-2.4-1.1-3.4c0.3-2.6-2.7-4.9-5.2-5.5c-0.1-0.1-0.5-0.2-0.7-0.1
				c-6.2,2.5-12.7,4.8-19.2,7c-0.4-0.2-1,0.1-1,0.7c0,1-1.2,1.8,0,3c-1.1,1.3-2,2.5-0.7,3.9c0.3,0.3,0.7,0.6,1.1,0.7
				c-1.1,2.7,1,4.5,3.7,5.5c0.4,0.4,1.9,0.4,2.4,0.4c8.5,0,20-7,21-7.8C673.9,199.1,675.9,196.7,672.8,195.1z"/>
			<g>
				<path class="st20" d="M668,191.1c0.5-0.1,0.5-1-0.1-1c0,0-0.1,0-0.1,0c-7.2,1.7-13.7,5.2-21.3,6.1c-0.1,0-0.2,0.1-0.3,0.2
					c-0.1,0.1-0.1,0.2-0.1,0.4C646.6,198.8,663,192.3,668,191.1z"/>
				<path class="st20" d="M669.2,192.7c0.2-0.1,0.3-0.4,0.2-0.7c-0.1-0.2-0.4-0.3-0.7-0.2c-6.3,4-14.8,8.4-22.2,8.7
					c-0.3,0-0.5,0.2-0.5,0.5C646,202.2,655.6,201.4,669.2,192.7z"/>
				<path class="st20" d="M671,195.7c-1,0-12.5,7.6-23.9,6.3c-0.6-0.1-0.7,0.9,0,1c7.9,0.9,17.1-2.6,24.1-6.4
					C671.7,196.4,671.5,195.7,671,195.7z"/>
				<path class="st20" d="M656,204.5c-1.5,0.1-2.2-0.2-2.2,0.5c0,0.9,2.7,0.5,3.6,0.3c0.4-0.1,3.3-0.8,3.6-1.2
					c0.1-0.1,0.1-0.2,0.1-0.4C660.8,202.7,659.4,204.1,656,204.5z"/>
			</g>
			<g>
				<path class="st21" d="M636.4,242c0.7-0.7,2.2-18.1,2.4-20.9c0-0.3-0.2-0.5-0.5-0.5c-0.3,0-0.5,0.2-0.5,0.5
					c-0.3,6.9-1.2,13.8-2.2,20.6c0,0.1,0,0.3,0.1,0.3C635.9,242.1,636.2,242.1,636.4,242z"/>
				<path class="st21" d="M670.2,217.4C670.2,217.4,670.2,217.4,670.2,217.4C670.2,217.4,670.2,217.4,670.2,217.4z"/>
				<path class="st21" d="M640.9,239.1C640.9,239.1,640.9,239.1,640.9,239.1C641,239,641,239,640.9,239.1z"/>
				<path class="st21" d="M659.8,212.4c-14,1.5-14,16.1-18.9,26.7c0,0,0,0,0,0c-1.4,2.9-3,5.4-5.4,7.4c-0.5,0.4,0.1,1.2,0.7,0.7
					c1.7-1.5,3.2-3.3,4.3-5.2c3.5-5.9,4.6-13.2,7.6-19.9c0,0,0,0,0,0c4.4-9.3,16.7-11.9,22-4.8c0,0,0,0,0.1,0.1c0,0,0,0,0,0
					c5.2,7.4,1,20-2.8,28.2c0,0-2.6,5.9-9.4,16.6c-1.9,3-4.4,5.3-7.5,7.5c0,0,0,0,0,0c-2.3,1.6-4.7,3.1-7.1,4.5
					c-0.4,0.2-7.3,4.2-7.4,4.7c-0.1,0.2,0.1,0.5,0.3,0.6c0.1,0,0.3,0,0.4,0c6.1-4.1,12.9-7.2,18.2-12.1c2.1-2,3.2-3.6,4.3-5.2
					c5.8-9.1,12.3-20.4,14-31.1C675,219.6,670.2,211.3,659.8,212.4z"/>
				<path class="st21" d="M667.4,245.6C667.4,245.6,667.4,245.6,667.4,245.6C667.4,245.5,667.4,245.5,667.4,245.6z"/>
				<path class="st21" d="M648.1,222.1C648.1,222.1,648.1,222.1,648.1,222.1C648.1,222.2,648.1,222.2,648.1,222.1z"/>
			</g>
			<path class="st8" d="M637.2,164c-0.2-0.3-0.4-0.6-0.5-0.8c-1-1.7-3.5-0.1-2.5,1.5c0.2,0.3,0.4,0.6,0.5,0.8c0.4,0.7,1.3,0.9,2,0.5
				C637.3,165.6,637.6,164.7,637.2,164z"/>
			<path class="st22" d="M657.7,157.9c-0.6,0.4,0,1.2,0.5,0.8c0.7-0.4,1.5-0.6,2.2-0.2c-0.1,0.1-0.1,0.2-0.1,0.3
				c-0.3,1.6-1,2.9-2,4.3c-0.3,0.4,0.4,1.1,0.8,0.5c1-1.3,1.8-2.8,2.1-4.4c0.2,0.3,0.2,0.4,0.3,0.7c0.1,0.2,0.3,0.4,0.6,0.3
				C663.4,160,661,155.9,657.7,157.9z"/>
		</g>
	</g>
	<g>
		<g>
			<g>
				<path class="st5" d="M301.9,367.2c0-1.2,0.2-2.5-0.9-2.5c-0.3,0-0.5,0.1-0.7,0.3c-2.5-2.2-6.7-1.5-9.4,0.7
					c-0.3-1.7-2.2-1-1.9,0.2c1.6,6.4,5.1,12.1,8.6,17.6c1,1.5,1.1,2.1,1.8,2.2c0.9,0,1-0.6,1.1-1.4c0.7-5.4,1.4-10.9,1.5-16.5
					C302,367.6,302,367.4,301.9,367.2z"/>
				<path class="st5" d="M282.8,347c0-0.3-0.3-0.6-0.6-0.8c-2.4-2.7-7.1-2.3-9.8,0.3c-0.2-1.2-0.1-2.1-1.1-2.1
					c-0.4,0-0.7,0.2-0.8,0.4c-0.8,1.2,4.1,18.2,5,19.1c0,0.7,0.8,1.2,1.4,0.8c0.4-0.2,0.9-1.6,1.1-2c1.9-4.3,3.9-8.8,4.5-13.6
					c0.5-0.1,0.9-0.6,0.6-1.4C283.2,347.5,283,347.2,282.8,347z"/>
			</g>
			<path class="st23" d="M319.1,316.1c-0.3-0.3-0.7-0.5-1.1-0.3c-6.5-12.4-40.9-6.4-51.1,1.1c0.1-0.9,0.2-1.8,0.3-2.7
				c0-0.2,0-0.5-0.2-0.7c-0.2-0.2-0.5-0.4-0.7-0.4c-0.3,0-0.5,0.1-0.7,0.3c-0.2,0.2-0.3,0.4-0.3,0.7c-0.2,1.5-0.3,3-0.4,4.7
				l-0.1,0.1c-0.2,0.2-0.2,0.5-0.1,0.7c0,0.1,0.1,0.2,0.2,0.3c-0.3,7.9,0.4,15.9-0.2,23.9c0,0.2,0,0.3,0.1,0.4
				c-1.1,2.1,9.9,5.9,22.3,4.5c-0.3,1.5-1.2,8.3-3.3,15.6c-0.5,0.5-0.3,1.3,0.4,1.6c8.2,2.9,19,4.2,27.8,2.4
				c2.3-0.4,6.1-40.1,6.6-45c0.3-0.3,0.5-1.9,0.5-2.4c0-0.5,0-1.1,0-1.7C319.3,316.8,319.5,316.5,319.1,316.1z"/>
			<path class="st24" d="M289.9,322c0,7.9-0.7,15.7-1.7,23.5c0.1-0.7-0.3,1.8-0.4,2.5c0,0.3,0.1,0.5,0.3,0.6
				c0.3,0.1,0.6-0.1,0.6-0.3c1.3-8.7,2.1-17.5,2.1-26.2C290.8,321.3,289.9,321.3,289.9,322z"/>
		</g>
		<g>
			<path class="st10" d="M45.7,317.5c0,23-0.1,104.8-0.1,109.9c0,2.9,4.4,2.9,4.4,0c0-14.3,0.1-82.7,0.1-109.9
				C50.1,314.6,45.7,314.6,45.7,317.5z"/>
			<path class="st10" d="M88.4,314c0,5.4,0,22,0,36.9c0,2.9,4.4,2.9,4.4,0c0-12.4,0-24.5,0-36.8C92.8,311,88.4,311.1,88.4,314z"/>
			<path class="st10" d="M331.1,314.6l0,12c0,12.4-0.3,12.6,0.6,13.5c0.4,0.4,1,0.7,1.6,0.7c1.2,0,2.2-1,2.2-2.2l0-12l0-12
				C335.5,311.8,331.1,311.7,331.1,314.6z"/>
			<path class="st10" d="M365,316.2c0,3.9-0.1,105-0.1,108.1c0,2.9,4.4,2.9,4.4,0c0-2.9,0.1-105,0.1-107.9v-0.2
				C369.4,313.3,365,313.3,365,316.2z"/>
		</g>
		<path class="st0" d="M39.4,478.1c0,0.4,0.3,0.7,0.7,0.7c0.4,0,0.7-0.3,0.7-0.7s-0.3-0.7-0.7-0.7C39.7,477.3,39.4,477.7,39.4,478.1
			L39.4,478.1L39.4,478.1z"/>
		<g>
			<path class="st25" d="M337.5,197.5c0.8-0.7,0.1-2.6-1.7-2.6c-1.4,0-104.7,0.3-105.5,0.9c-0.2,0-0.5,0.2-0.7,0.5
				c-0.2,0.2-5.9,36.9-6,37.2l0,0.1l0,0.2c-18.6-0.7-120.7,0.4-135.9,0.4l0.3-0.1c0.6-1,1.3-1.9,0.2-2.5c-1.1-0.7-1.7,0.9-2.8,2.7
				l-0.8-0.1c-0.4,0-0.8,0.4-0.8,0.8c0,0.4,0.4,0.8,0.8,0.8c-5.1,7.9-44.9,73.2-48.6,79.2c-1.6,2.7-1.5,2.5-2,3.4
				c-0.4,0.7-0.8,1.3-0.2,1.9c0.4,0.3,0.9,0.4,1.3,0.2c0.3-0.1,0.3-0.3,0.5-0.5c0,0.1,299.6,0.5,299.7,0.5
				c46.9-0.1,46.6,0.4,46.6-1.6C382,318.2,340.2,204.9,337.5,197.5z"/>
			<rect x="33.9" y="319.4" class="st26" width="348" height="10.3"/>
		</g>
		<g>
			<path class="st13" d="M198.5,215.5c-1.7,0-3.4,0.1-4.4,0.2c-37.9,1.7-52.5-1.8-49.7,1.2c-6.1,2.6-4.4,11.5-2.9,18.1
				c0.6,2.4,1.3,4.4,2.1,6c3,5.7,8.6,7.3,15.7,8.5c-17.1,5.9-8.2,26.6,3.7,35.5c-0.4,0-1.1,0-1.5,0c-1,0-1,1.5,0,1.5
				c1.7,0,2.6,0,3.8,0c0.6,0.4,1.2,0.7,1.6,0c21.1,0,30,0.8,28.2-1.3c0.2-11.6,0.1-23.5,0.5-35.5c0-0.3-0.1-0.5-0.4-0.6
				c1.6-11.1,3.9-21.8,4.4-32.7C199.6,215.7,199,215.2,198.5,215.5z"/>
			<path class="st1" d="M194.3,220.8c-0.5-0.7-14.6,0-19.8,0c-8.8,0-19.4-0.6-25.9-0.6c-0.2,0-0.3,0-0.4,0.1
				c-0.4,0.1-0.7,0.5-0.6,0.7c0.9,8,2.2,16,2.8,23.9c-0.6,0.3-0.5,1.2,0.1,1.4c0.1,1.8-0.1,3,0.9,3c1,0,0.8-1.2,0.6-2.8
				c3.4,0.6,8.5-0.5,12.6-0.2c1.7,0.9,19.1,0.6,25.8,1.1c0.2,0,0.4-0.1,0.6-0.3c1.2-0.5,3.1-19.6,3.9-25.6
				C194.8,221.3,194.6,220.9,194.3,220.8z"/>
		</g>
		<g>
			<path class="st5" d="M331.2,266.9c-0.1,0-0.1,0-0.2,0c0,0-0.1,0-0.1,0c-0.2-0.1-0.3-0.1-0.5-0.1c-0.2,0-0.3,0-0.4,0.1
				c-0.2,0.1-0.3,0.2-0.3,0.4c-0.1,0.2-0.2,0.4-0.3,0.6c-0.1,0.2-0.2,0.4-0.3,0.6c-0.3,0.7-3.9,8.3-3.7,9c-0.1,0.5-0.3,0.9,0.1,1.2
				c-0.2,0.6-0.5,1.1-0.7,1.7c0,0.1,0,0.3,0,0.4c0.1,0.4,0.5,0.6,0.9,0.5c0.4-0.1,0.4-0.3,0.5-0.6c0,0,0,0,0.1,0
				c0.4,0.1,0.8-0.1,0.9-0.5c1.2-4.3,3.4-8.2,4.5-12.6C331.8,267.4,331.6,267,331.2,266.9z"/>
			<path class="st15" d="M331.2,281.8c0.1-1.6,0.2-3.3,0.1-5.1c0-0.6-0.6-0.9-1.1-0.7c0,0-8.6,0.2-22.3-1c-0.2,0-0.4,0.1-0.5,0.2
				c-0.1,0.1-0.2,0.3-0.2,0.5c-0.3,1-0.9,11.9,2.1,20.4c0,0.1,0.1,0.2,0.2,0.3c0.1,0.3,0.4,0.4,0.7,0.4c3.7,0.1,15.8,2,16.8,0.4
				c0.6-0.3,2.1-4.6,2.3-5.3c4.2-2.1,8.6-4.2,9.5-7.6C339.8,280.7,335.5,280.6,331.2,281.8z M329.9,290.2c0.6-2.1,1-4.4,1.2-6.8
				c1.1-0.3,2.1-0.6,3.1-0.7l0,0c1.1-0.1,3-0.3,3.2,0.8C337.7,286.3,332.5,288.8,329.9,290.2z"/>
		</g>
		<g>
			<path class="st5" d="M338.6,213.9c-1.4,6.1-2,10.4-4.9,28.6c-0.2,1.5,1.7,1.5,1.9,0.5c3-18.9,3.7-23.2,4.9-28.6
				C340.8,213.1,338.9,212.8,338.6,213.9z"/>
			<path class="st5" d="M334.8,226.8c-0.1,0-0.2,0-0.4,0c0.4-1.1-1.8-1.7-2.7-0.6c0,0-0.1,0-0.1,0c-0.4,0-0.8,0.3-0.7,0.7
				c0.6,7.1-0.5,9.4,0.9,9.4c0.4,0,0.7-0.3,0.7-0.7c0.4,0.1,0.8-0.1,0.9-0.5c0.7-2.5,1.5-4.9,1.9-7.4
				C335.4,227.2,335.2,226.9,334.8,226.8z M334,227.2C334,227.2,334,227.2,334,227.2C334,227.2,334,227.2,334,227.2
				C334,227.2,334,227.2,334,227.2z"/>
			<path class="st27" d="M322.1,220.2c0-0.3-0.3-0.6-0.6-0.7c-0.7-0.4-1.7,0-1.8,0.8c-0.2,0.2-0.4,0.4-0.5,0.6
				c-0.1,0.1-0.1,0.1-0.2,0.2c-0.2,0.3-0.4,0.8-0.3,1.1c0,0,0,0.1,0,0.2c0,0.4,0.1,1.1,0.2,1.5c0.1,0.7,0.3,1.6,0.5,2.5
				c0,0.1,0.1,0.2,0.2,0.2c0.1,0,0.2-0.1,0.2-0.2c0.3,0.3,0.6-0.1,0.4-0.3c-0.1-0.1-0.1-0.2-0.2-0.3c0,0,0,0,0,0
				c-0.3-0.8-0.2-0.8-0.7-3.3c0-0.4,0.1-0.8,0.2-1c0.1-0.1,0.2-0.2,0.2-0.2c0,0,0,0,0,0c1.1,6.4,2.7,12.6,4.5,18.9
				c0.2,0.6,0.9,1,1.5,0.8C328.2,240.4,325,237.1,322.1,220.2z"/>
			<g>
				<path class="st3" d="M326.9,223.5C326.9,223.5,326.9,223.5,326.9,223.5C326.9,223.5,326.9,223.5,326.9,223.5z"/>
				<path class="st3" d="M334.2,217.1c-0.5-1.6-2-2.8-4.1-2.8c-6.9,0-6.3,9.6-2.7,12.5c2,1.6,4.2,0.6,5.3-0.5c0.4,0,0.7-0.2,0.8-0.7
					C333.7,223.1,335,219.7,334.2,217.1z M332.1,224.7c-0.2,0.1-0.4,0.5-0.7,0.7c-0.8,0.6-1.5,0.9-2.4,0.5c-0.7-0.3-1.4-0.9-2.1-2.5
					c0.5,1-1.4-2.5-0.2-5.6c1.3-2.8,5.8-3.1,6.3,0.3C333.2,220.3,332.4,222.6,332.1,224.7z"/>
				<path class="st3" d="M326.3,221.4C326.3,221.4,326.3,221.4,326.3,221.4C326.3,221.4,326.3,221.4,326.3,221.4z"/>
				<path class="st3" d="M338.5,215.8c-3,0.8-4.4,7.2-5.1,10.1c-0.1,0.3,0,0.5,0.2,0.7c0.8,1.6,6.2,3.6,9-1.7
					C345.1,219.9,341.4,215.1,338.5,215.8z M335.1,226.2c-0.1-0.1-0.1-0.1-0.2-0.2c0.5-1.9,1.6-6.9,3.5-8.5c1.5-1.1,3.3,1.2,3.6,3.2
					C342.4,224.7,338.7,228.6,335.1,226.2z"/>
			</g>
			<path class="st8" d="M338.3,232.9c-5.6-0.3-11.3-0.2-16.9-0.4c-0.1-0.1-0.5,0.1-0.7,0.4c-0.8,0.9,0.2,16.4,0.4,21.4
				c0,0.1,0.1,0.3,0.1,0.4c0,0.4,0.4,0.6,0.7,0.6c13.4-0.2,15.3,0.3,14.8,0.3c0.4,0,0.7-0.3,0.7-0.7c0.7-0.8,1.3-16.4,1.8-21.3
				C339.4,233.1,338.8,232.7,338.3,232.9z"/>
		</g>
		<g>
			<path class="st28" d="M94,404.4c-0.7-1.4-2.2-3.5-3.5-4.5c-1.2-1.1-2.5-1.6-4.1-2c-5-1-5-1-9.6-4.6c-0.6-0.5-1.2-1-2-1.4
				c-0.7-0.4-1.4-0.6-2.1-0.6c0,0,0,0,0,0c-0.7,0-1.5,0.2-2.2,0.7c-2,1.3-7.9,8.1-7.8,15.1c-0.1,0.2-0.1,0.4,0,0.5
				c0,0.9,0,1.9,0.8,1.9c0.1,0,0.3,0,0.4-0.1c6,7.5,18.6-1.9,25.7,0.2c1.6,0.5,2.9,0.8,4,0c-0.1,1,1.4,1.1,1.5,0.1
				C95.2,407.6,94.8,406,94,404.4z"/>
			<path class="st29" d="M105.4,363.8c0,0-0.4-3.7-0.4-3.7c0.1-0.1,0.2-0.3,0.2-0.5c0-0.4-0.4-0.8-0.8-0.8l-0.6,0
				c-8.5,0-18-1.5-51.8,0.8c-0.6-0.1-1,0.3-1,0.8c0.2,4.4-0.1,4.8,0.6,5c0.1,0.1,0.3,0.1,0.4,0.1c1.8,0,3.6,0,5.4,0
				c0.9,15.6,3.3,30.7,4.2,47.8c0,0.1,0,0.3,0.1,0.4c-0.1,0.1-0.1,0.3-0.1,0.5c0.2,0.9,1.3,0.5,2.2,0.4c7.8-1,16.1-0.4,24.9,0.1
				c0.2,0.1,0.4,0.1,0.6,0c5.5,0.3,6.2,0.3,6.2-0.6c0.2-0.1,0.3-0.4,0.3-0.6c0-1.8,0.1-3.6,0.2-5.4c0.3-0.2,0.4-0.7,0-1.1
				c0.6-14.3,1.7-28.9,3.2-41.9c1.7,0.1,3.5,0.1,5.3,0.1c0.4,0,0.8-0.4,0.8-0.8C105.6,364.2,105.5,364,105.4,363.8z M84.4,365.2
				c1,0.1,6,0,6.6,0c-0.2,2.1-0.4,4.5-0.6,7.6c-2,0-4.1-0.1-6.2-0.1C84.3,370.2,84.3,367.7,84.4,365.2z M82,410.9L82,410.9L82,410.9
				C82,410.9,82,410.9,82,410.9z M82.9,365.2c-0.1,0.2-0.1,7.2-0.1,7.4c-2.5-0.1-4.9-0.1-7.3-0.1c-0.1-2.3-0.2-4.7-0.2-7.3
				L82.9,365.2z M74.5,383.2c-0.1,0-5,0.1-6.9,0.2c-0.2-2-0.6-7.1-0.7-9.1c2.8-0.1,4.9-0.1,7.1-0.1
				C74.1,377.5,74.3,380.9,74.5,383.2z M73.7,365.4c0,2.1,0,4.5,0.1,7.3c-0.6-0.1-6.4,0.1-7.1,0.1c-0.2-2.5-0.3-5-0.4-7.3
				C67.6,365.4,69.4,365.4,73.7,365.4z M59,365.4c1.2,0.1,3,0,5.8,0c0.1,2.1,0.2,4.5,0.4,7.4c-1.7,0-4,0.2-5.7,0.4
				C59.4,370.6,59.2,367.8,59,365.4z M59.8,374.8c2.1-0.2,4-0.3,5.7-0.4c0.1,2.4,0.4,5.2,0.7,9c-2.1,0-3.9-0.1-5.6-0.2
				C60.3,380.2,60,377.4,59.8,374.8z M61.4,391.7c-0.2-2.9-0.1-1.6-0.7-7.1c1.5,0.2,3.3,0.3,5.6,0.3c0.2,2.4,0.4,4.9,0.6,7.4
				C64.1,392.1,61.5,391.7,61.4,391.7z M61.6,393.2c1.6,0.2,3.5,0.5,5.5,0.6c0.4,4.2,0.2,2.7,0.6,6.5c-1.8,0-3.6,0-5.4,0
				C62.1,397.9,61.9,395.5,61.6,393.2z M62.9,406.7c-0.1-1.6-0.3-3.3-0.4-4.9c1.8,0.1,3.6,0.1,5.4,0.1c0.3,3.5,0.2,2.5,0.4,4.6
				C66.7,406.5,64.9,406.6,62.9,406.7z M67.8,384.8c0.4,0.1,6.4-0.1,6.9-0.2c0.3,4.6,0.1,1.9,0.5,7.9c0,0-4.2-0.1-6.8-0.2
				C68.1,388,68.2,389.7,67.8,384.8z M68.6,393.9c2.3,0.2,4.5,0.2,6.7,0.2c0,0.7,0.2,4,0.3,6.2c-2.8,0-2.9,0-6.5,0
				C69.1,398.9,69,397.4,68.6,393.9z M69.8,406.4c-0.1-1.5-0.3-3-0.4-4.5c2,0.1,4,0.1,6.4,0.1c0,0.1,0.1,4.4,0.1,4.5
				C74.7,406.3,71,406.4,69.8,406.4z M75.5,374.1c4.7,0.1,3.1,0.1,7.3,0.1c-0.1,0.4-0.2,8.2-0.2,8.6c-1.7,0-3.5,0.1-6.6,0.2
				C75.7,378.4,75.6,376.3,75.5,374.1z M76.2,384.5c2,0,2.5-0.1,6.5-0.2c-0.1,0.9-0.1,2-0.2,8.1c-2.1,0-2.8,0.1-5.7,0.1
				C76.6,389.8,76.6,390.7,76.2,384.5z M76.9,394.1c1.2,0.1,4.3-0.1,5.6-0.1c0,0.3-0.2,6.1-0.2,6.4c-3,0-1.9,0-5,0
				C77.1,398.3,77,396.2,76.9,394.1z M77.4,406.4c0-1.2,0-2.5-0.1-4.5c0.6,0.1,3.9,0,4.9,0c-0.1,0.8,0-0.1-0.2,4.6
				C80.6,406.4,79,406.4,77.4,406.4z M88.8,406.6c-3.2-0.1-2,0-5.3-0.1c0.1-1.5,0.1-3.1,0.2-4.7c1.1,0,4.3-0.1,5.4-0.1
				C89,402.6,89.1,401.7,88.8,406.6z M89.1,400.2c-4,0.1-2.7,0.1-5.3,0.1c0.1-2.1,0.1-4.3,0.2-6.4c1.9,0,3.8-0.2,5.5-0.3
				C89.2,397.7,89.3,396.2,89.1,400.2z M89.5,392c-1.5,0-0.9,0-5.5,0.3c0.1-2.7,0.1-5.4,0.2-8.1c2.7,0,2.9,0,5.7,0
				C89.7,386.8,89.6,389.4,89.5,392z M84.2,382.7c0.1-3.2,0.1-5.6,0.1-8.5c1.6,0.1,3.5,0.1,6.1,0.1c-0.2,3-0.4,5.9-0.5,8.5
				C88.4,382.6,85.6,382.6,84.2,382.7z M95,401.4c0,1-0.1,2.8-0.2,5.3c-1.5,0-2.9,0-4.4-0.1c0.1-1.7,0.2-3.3,0.3-5.1
				c1.2,0,2.6-0.1,4.4-0.2L95,401.4z M95.1,399.8c-1.2,0-1.2,0.1-4.4,0.2c0.2-4,0.1-2.5,0.3-6.6c1.1,0,2.2-0.1,4.5-0.3
				C95.3,395,95.2,397.2,95.1,399.8z M95.5,391.6c-2.8,0.1-1.7,0.1-4.5,0.3c0.1-2.5,0.2-5.1,0.3-7.6c1.8,0.1,3.4,0.3,4.7,0.5
				C95.9,386.7,95.7,389,95.5,391.6z M96.2,383.2c-1.4-0.2-3-0.4-4.8-0.5c0.2-2.5,0.2-3.1,0.5-8.5c0.1,0.1,5,0,5.1,0
				C96.7,376.9,96.4,379.9,96.2,383.2z M97.1,372.7c-3.1,0-1.7,0-5.2,0c0.2-2.5,0.3-5,0.5-7.6c3.3,0,2.1,0,5.5,0
				C97.7,367.1,97.4,369.6,97.1,372.7z"/>
		</g>
		<g>
			<path class="st30" d="M308.3,230c0-0.7-0.6-1.2-1.2-1.2c-0.1,0-0.2,0-0.3,0c0,0-4.9-0.1-7.1-0.4c-1.1-0.2-2.1-0.4-3.1-0.7
				c-0.1,0-0.2,0-0.3,0c-1.1,0-1.7,1.5-0.7,2.2c-17,3.7-24.5,12.1-27.6,25.7c-0.8-0.6-2,0.1-1.9,1c0.3,2.3,0.6,6,0.2,8.5
				c0,0.3-0.1,0.6,0.1,0.9c-0.1,3.6-0.7,5.1,0.6,5.3c11.7,2.1,23.7,3,35.4,2c0.6,0.1,1.2-0.3,1.4-0.9c0.6,0.3,1.6-0.1,1.7-1.1
				C306.5,257.8,308.6,243.9,308.3,230z M274.5,270.1c0.3,0,0.5,0.1,0.8,0.1C274.9,270.2,274.8,270.2,274.5,270.1z"/>
			<path class="st1" d="M304.4,223.9c-6.5,0.1-13.8-0.3-20.4-0.7c-20.3-1.3-20.7-1-20.3,0.7c0,0-2.3,40.5-2.3,40.5
				c-0.3,0.8,0.3,1.6,1.2,1.7c10.7,0.6,22.6,1.8,34.1,1.6c0.6,0,1.2-0.5,1.2-1.1c0.4-0.1,0.8-0.4,0.8-1.1c1.3-13.4,3-26.1,3-39
				c0.2,0,0.5,0,0.8,0c1.5,0,3.2,0.2,3.2-1.3C305.6,224.5,305.1,223.9,304.4,223.9z"/>
			<g>
				<path class="st23" d="M292.4,260.7c-8.9-0.5-18.3,0.4-26.6-1.7c-0.6-0.2-0.9,0.8-0.3,0.9c8.4,2.2,18,1.3,26.8,1.8
					C293,261.7,293.1,260.8,292.4,260.7z"/>
				<path class="st23" d="M292.7,255.3c-1,0-28.9-1.4-26.3-1.4c-0.6,0-0.6,0.9,0,1c8.7,0.7,17.5,0.9,26.2,1.4
					C293.3,256.3,293.4,255.3,292.7,255.3z"/>
				<path class="st23" d="M294.9,251.1c-9.3-0.5-18.7-0.6-27.7-2.3c-0.7-0.1-0.8,0.8-0.3,0.9c9.2,1.7,18.7,1.7,28,2.3
					C295.5,252.1,295.6,251.1,294.9,251.1z"/>
				<path class="st23" d="M266.2,244.3c2.9,0.8,6,1.1,9,1.2c0.6,0,0.7-1,0-1c-1.6,0-3.1-0.1-4.7-0.3c-2.2-0.3-4.2-0.8-4.2-0.8
					C265.8,243.3,265.7,244.1,266.2,244.3z"/>
				<path class="st23" d="M295.6,245.1c-3.7-0.1-6.9-0.6-6.9-0.6c-0.6,0-0.6,0.9-0.1,0.9c2.3,0.4,4.7,0.6,7,0.6
					C296.2,246.1,296.2,245.1,295.6,245.1z"/>
				<path class="st23" d="M274.4,239.3c0.6,0,0.7-0.9,0-1c-2.2-0.1-4.4-0.3-6.6-0.4c-0.3,0-0.5,0.2-0.5,0.5
					C267.2,239.2,267.5,238.9,274.4,239.3z"/>
				<path class="st23" d="M294.9,239.6L294.9,239.6C294.8,239.5,294.8,239.6,294.9,239.6z"/>
				<path class="st23" d="M290.5,239.1c2.6,0.2,3.5,0.4,4.4,0.5h0c0.2,0,0.4,0.1,0.6,0c0.2-0.1,0.3-0.5,0.2-0.7
					c-0.1-0.1-0.2-0.2-0.3-0.2c-1.6-0.2-3.3-0.4-4.9-0.6c-0.4,0-0.7,0.5-0.3,0.8C290.2,239,290.3,239.1,290.5,239.1z"/>
			</g>
		</g>
		<g>
			<path class="st1" d="M94.4,272.5c-0.7-4.4-0.6-2.3-1.2-6.7c-0.5,0-0.9,0.5-0.7,1c-1.5-1-1.9,4.2-11.5,20.8
				c-6.5,0.1-9.2-0.3-15.6-0.2c-0.3,0-0.5,0.2-0.6,0.4c-0.3,0.1-0.4,0.4-0.4,0.7c0.4,6.4-1.1,6.6,10.8,6.4c8.4-0.1,7.5,0.2,8.5,0.2
				c0.2,0,0.4-0.1,0.5-0.2c0.2,0.3,0.9,0.3,1.1-0.2c0.8-1.6,1.7-3.3,2.5-5.2l0-0.1l0,0c2.3-5.4,5.6-10.7,7.3-16.2
				C94.7,273.1,94.4,272.8,94.4,272.5z"/>
			<g>
				<path class="st3" d="M96.3,270.3c-0.1,0-0.7-0.3-0.8-0.3c-0.1,0-0.5,0-0.6-0.1c0,0,0,0,0,0c-0.6-0.1-1-0.3-1.1-0.3c0,0,0,0,0,0
					c0,0,0,0,0,0c0,0.1,0.3,2.5,0.3,2.7c-0.1,0.3-0.2,0.6-0.3,0.9c0,0,0,0,0,0c-0.8,2.2-8.7,20.1-9.1,21.1c0,0-9.6,0.3-19.3-0.7
					c0-1.6-0.3-3.2-0.6-4.8c6.1,0.3,21.2,2.8,19.8,0c0.3-0.6,1.3-3.2,2.1-5l0,0.1l0,0c3.5-8,5.5-12.7,6.8-17.1
					c0.1-0.3,0-0.6-0.3-0.8c-0.1-1.7-8.6-0.5-17.2-1.6c-0.4,0-0.6-0.1-0.9,0.2c0,0-0.1,0-0.1,0c-0.3,0.2-0.5,0.8-0.6,1.1
					c-1.6,3.6-10.8,19.8-11,22.1c-0.2,0.2-0.2,0.3-0.2,0.7c0.4,2.2,0.7,3.6,0.7,5.4c0,0.2,0.1,0.4,0.3,0.6c0,0.4,0.3,0.6,0.7,0.7
					c2.2,0.2,19.1,1.5,20.1,0.5c0.7,0.2,0.8-0.3,1.1-0.9c1.3-3,2.4-5.1,3.8-8.5c3.1-7.6,3.3-7.4,4.7-11
					C95,274.8,96.2,270.7,96.3,270.3z"/>
				<path class="st3" d="M92.9,270c0,0,0-0.1,0-0.1c0,0,0,0,0,0C92.8,269.9,92.8,269.9,92.9,270z"/>
			</g>
			<path class="st12" d="M84.8,269.6c-0.1-0.1-0.3-0.2-0.5-0.3c-2.5-0.2-6.3-0.8-6.9-0.2c-0.3,0.1-0.3,0.3-0.4,0.5
				c-1.7,4-2.3,4.2,6.8,4.5c0.1,0,0.3,0,0.4-0.1c0.5,0,0.6-0.4,0.8-0.9C85.4,271.8,86.3,269.2,84.8,269.6z"/>
		</g>
		<g>
			<path class="st8" d="M234.9,259.4c-2.9-0.2-6.3,2.3-7.2,5.9c-1.9,8.5,9.4,17.6,12.1,16.4c2.4,0.5,4.8-0.2,6.4-2
				C251.6,273.3,242.3,259.8,234.9,259.4z"/>
			<path class="st31" d="M240.3,263.4c-4.9,0.9-8.8,2.3-11.4,6.8c-0.3,0.5,0.5,1,0.8,0.5c2.5-4.2,6.2-5.5,10.8-6.3
				C241.2,264.2,240.9,263.3,240.3,263.4z"/>
			<path class="st31" d="M234.7,264.1c-0.9-1-2-1.9-3.1-2.7c-0.5-0.4-1,0.5-0.5,0.8c1.1,0.7,2.1,1.6,2.9,2.5
				C234.4,265.2,235.1,264.5,234.7,264.1z"/>
		</g>
		<g>
			<path class="st28" d="M319.6,98.9c-1.1-3.9-9.2-20.8-10.9-20.9c-6.4-6.6-16-7.8-25.1-5.1c-23.8,6.9-18.1,31-18.8,37l0-0.1
				c-0.4,2.6-1.2,4.3-2.4,5.9c-5.6,7-22,9-16.9,25.9c3.6,11.8,7.4,11.7,12.1,12.1c0.1,0,1.4,0.1,1.3,0.1c0,0-0.1,0-0.1,0
				c3.9,0.6,6.5,1.8,9.6,3.1c25.3,10.9,28-3.9,38-11.6l0.1-0.1l0.1-0.1l0,0c1-0.7,3.9-2.9,5.5-4.3c9.4-8.1,4.4-15,5.5-23.4
				c0.2-1.3,0.5-2.5,1.2-5c0.2-0.9,0.5-1.7,0.7-2.6C320.5,105.8,320.7,102.7,319.6,98.9z"/>
			<path class="st12" d="M296.7,227.4c-1-3.2-3.8-4.9-7.2-5.3c0.4-0.4,0.8-0.7,1.2-1.1c0.5-0.5-0.3-1.1-0.7-0.7
				c-4.2,4.3-8.7,6.4-12.3,10.7c-1.1,1.3-3.4,4.3-1.6,4.3c0.3,0,0.5-0.1,0.6-0.3c1.3-0.8,2.1-1.3,3.7-2.3
				c-5.2,9.5-4.3,14.5-2.6,13.8c0.1,0.4,0.6,1,1,1c0.2,0,0.4-0.1,0.7-0.3c0.9,0.6,0.8,0.8,1.9,0.4c0.6,0.9,0.7,0.7,1.6,0.4l0.1,0.1
				l0,0c1.9,2.1,3.1-6.1,7.1-11.4l0,0c2.3-3,4.9-4.9,7.3-8.2C297.9,228.1,297.4,227.2,296.7,227.4z"/>
			<path class="st12" d="M312.4,92.3c0-0.2-0.1-0.4-0.3-0.5c0.3-1.7-7.5-3-11.4-5.5c-7.8-4.9-11,1.9-15.6,5.5l0,0
				c-3.5,2.6-5.6,1.7-6.5,1.7c-0.2,0-0.4,0.1-0.4,0.3c-0.5,0.2-0.4,0.4-0.4,0.9c0.3,2.7,0.2,5.5,0.1,8.3c-0.1,1.7-0.1,3.4-0.1,5.1
				c0.2,8.7,3,13.6,10.9,17c0.1,2.5,0,4.6-0.3,7c-0.8,1.5,7.1,5.3,10.3,0.5c0.1-0.1,0.2-0.3,0.3-0.5c0.2-2.2,0.2-4.5,0.5-7.2
				C313.9,120.2,313.4,105.8,312.4,92.3z"/>
			<path class="st5" d="M299.6,132.1c-0.1-0.1-0.2-0.1-0.3-0.1c-0.1,0-0.2,0-0.3,0.1c-1,0-1.6,2.5-6.5,1.9c-1.3-0.2-2.7-0.6-3.7-1.5
				c-0.1-0.3-0.4-0.5-0.7-0.4l-2.4,0.4c-32.2,5.8-40,9.7-40,56.1c0,9.6,2.9,18.4,12.4,19c0.3,0,1.6,0.1,1.9,0
				c9.4,0.4,21-6.6,29.8-11.6c7.1,0.7,14.6,1.1,21.5,0.6c-3.8,3.4-13.2,13.4-23.9,21.7l0,0c-0.5,0.4-1,0.7-1.4,1.1
				c-0.1,0.1-0.2,0.2-0.2,0.3c0,0.1,0,0.2,0,0.2c-0.1,0.2,0,0.5,0.1,0.6c1.4,1.2,2.9,2.3,4.4,3.5l0,0c2.3,1.7,5.2,4.1,6.9,6.6
				c0.1,0.2,0.4,0.3,0.6,0.3c0.2,0,0.3-0.1,0.4-0.2c1.9-1.4,3.4-2.1,4.5-2.7c26.8-14,28.1-26.6,29.7-37.7
				C339.5,141.1,321.1,141.9,299.6,132.1z"/>
			<path class="st1" d="M308.4,170.8c-0.8-5-2.2-9.8-3.6-14.7c-0.1-0.4-0.6-0.5-0.8-0.2c-0.4-0.2-0.8,0.1-0.7,0.5
				c0,0.2,0.1,0.5,0.1,0.7c-0.2,0.6,3.8,16.1,4,16.7c0.1,0.3,0.3,0.4,0.6,0.3c0.3-0.1,0.4-0.3,0.3-0.6c-0.2-0.7-0.3-1.5-0.5-2.2
				C308.2,171.5,308.5,171.2,308.4,170.8z"/>
			<path class="st1" d="M301.4,133c0-0.2-0.2-0.2-0.4-0.3c-0.4-0.2-0.9-0.5-1.3-0.8c-0.2-0.2-0.4-0.2-0.6-0.1
				c-0.3-0.1-0.5,0.1-0.7,0.3c-1.6,2.1-6.4,2.6-9.1,0.5l0.1,0.1c-0.5-0.5-1-1.2-1.4-0.7c-0.8,0.1-1.9,0.2-2.6,0.5
				c-0.3,0.1-0.4,0.4-0.3,0.6c0,1.7-0.9,7.9-1.3,11.2c0,0.2,0.2,0.4,0.4,0.4c0.1,0.3,0.6,0.4,0.9,0.1c2-2.3,5.5-5.7,8.3-9.2
				c1.5,3.2,4.8,6.3,7,9.4c0.3,0.4,0.8,0.3,0.9-0.1c0.4-0.6,0.4-5.1,0.4-5.8C301.6,133.5,302,133.1,301.4,133z"/>
			<path class="st12" d="M314.2,179.4c0.1-7.2-4.7-11.6-5.7-11.6c-0.9-0.4-9.5,4-12.8,5.4c0,0-0.1,0-0.1,0c-0.5,0.2-1,0.4-1.5,0.6
				c-0.1,0.1-0.2,0.1-0.3,0.2c-0.1,0.2-0.1,0.4,0,0.5c-0.2,0.1-0.3,0.3-0.2,0.5c0.7,2.5,1.7,5,3.1,8c0.1,0.2,0.4,0.3,0.6,0.2
				c0.1,0.1,0.2,0.1,0.3,0.1c3.2,0.2,7.2-2,9.9-3.8c0.3,0.2,0.3,0.2,0.3,0.2l0,0c1.3,1,2.3,2.5,2.8,4.1c0.1,0.3,0.4,0.4,0.6,0.4
				c0.5-0.1,0.5-0.7,0.5-1.3c0.3,0.4,0.9,0.3,1-0.1c0-0.1,0-0.2,0.1-0.4c0.4,0.1,0.7-0.1,0.8-0.7c0.2,0,0.3-0.2,0.4-0.5
				C314.3,181,314.5,179.7,314.2,179.4z"/>
			<g>
				<path class="st16" d="M292.7,173.2c-0.1-0.2-0.2-0.2-0.4-0.2c-0.1,0-0.1,0-0.2,0c-0.2-0.1-0.3-0.1-0.5,0
					c-3.3,1.9-16.8,8.7-25.5,10.7c-0.2-2.8-0.1-5.6,0.2-8.4c0-0.1-0.1-0.3-0.1-0.3c-0.2-0.2-0.5-0.2-0.7,0c-0.3,0.2-0.7,7.9-0.3,9
					c-0.9,0.2-1.8,0.4-2.7,0.5c0,0,0.1,0,0.1,0c-0.3,0-0.9,0.1-1,0.2c-0.2,0.2-0.2,0.5,0,0.7c0.5,0.6,7.3-1.3,8-1.5
					c6.6-2,18.3-7.5,22.4-9.9c1.3,2.7,2.5,5.4,3.7,8.1c0,0,0,0,0,0c1.5,3.5,2.5,6.4,2.5,6.4c-2.2,2.4-5.1,4.9-8,6.5
					c-0.5,0.3-0.1,1.2,0.5,0.8c2.9-1.6,5.9-4.2,8.2-6.6c0.1-0.1,0.2-0.4,0.1-0.5C299.6,187.8,293.2,174,292.7,173.2z"/>
				<path class="st16" d="M312.5,185.8c0-0.4-0.5-0.7-0.8-0.3c-0.1,0.1-0.1,0.2-0.1,0.3c-0.3,3,0.3,6,0,9.1c0,0,0,0,0,0
					c0,0.2-0.1,0.4,0,0.6c0.1,0.2,0.4,0.3,0.7,0.2c0.4-0.2,0.4-2.2,0.4-2.6C312.6,190.8,312.2,188.3,312.5,185.8z"/>
			</g>
			<g>
				<path class="st8" d="M285,103.4c0,1.9,2.9,1.9,2.9,0C287.9,101.5,285,101.5,285,103.4z"/>
				<path class="st8" d="M305.4,103.6c0,1.9,2.9,1.9,2.9,0C308.3,101.7,305.4,101.7,305.4,103.6z"/>
			</g>
			<g>
				<path class="st32" d="M298.2,101.8c-0.4,0-0.8,0.3-0.7,0.7c0.1,1.7-0.1,2.8,0.2,4.5c0.7,3.1,2.4,1.8,1.9,0.8
					C298.2,105,299.8,101.8,298.2,101.8z"/>
				<path class="st32" d="M288.5,95.7c-2,0-3.9,0.1-5.8,0.7c-1.3,0.4-0.6,2.2,0.5,1.9c4.7-1.6,8.3,0.4,8.3-1.6
					C291.5,95.5,290.2,95.7,288.5,95.7z"/>
				<path class="st32" d="M310.7,96.8c-2.2-0.9-4.5-1.2-6.9-0.9c-1,0.1-1,2,0.4,1.9c0,0,2.5-0.5,6,0.9
					C311.2,99.1,312.1,97.4,310.7,96.8z"/>
			</g>
			<path class="st33" d="M292.3,111.4c-1.5,0,0.4,2.4,3.4,3.1c2.5,0.5,4.6-0.5,4.7-0.9c0.1-0.3-0.1-0.6-0.5-0.6
				c-0.2,0-0.5,0.2-0.7,0.3c-2.3,0.9-5,0.3-6.6-1.7C292.6,111.4,292.4,111.4,292.3,111.4C302,111.4,282.6,111.4,292.3,111.4z"/>
			<path class="st33" d="M299.9,113c-2.2,1.3-5.1,0.2-7-1.5c-0.3-0.3-0.7-0.3-1,0c-1.1,1.1,2.6,2.9,4.1,3.3c1.5,0.4,3.2,0.3,4.7-0.5
				C301.5,113.8,300.7,112.5,299.9,113z"/>
		</g>
		<g>
			<g>
				<path class="st28" d="M241.8,207.8l0-0.3c-0.2,0-0.1,0-0.3,0c-1.4-0.7-23.3,0.9-23.7,1.3c-0.1,0.1-0.2,0.2-0.2,0.4
					c0,0.2,0.1,0.3,0.2,0.4c2.8,14.8,8.9,27.5,9.8,32.8l0,0.1h0l0,0.1c0,0.2,0,0.4,0,0.5c0,0.3,0.1,0.5,0.3,0.6
					c0.1,0.1,0.1,0.1,0.2,0.2c0.1,0.2,0.3,0.3,0.5,0.3c3.3-0.2,14.1-0.6,11.5-2.5c0.1-0.1,0.4-5.6,0.1-5.9
					c0.1-3.5,0.7-17.9,1.4-27.4C241.9,208.3,241.9,208,241.8,207.8z"/>
				<path class="st8" d="M243,205.4c-0.3,0-0.7,0.1-1,0.1c-0.6,0.1-1.3,0.1-1.9,0.1c0.5-3.2-5.6-0.6-19.5-0.9c-1,0-1.7,1.2-0.9,2.1
					c-3.6,0.3-4.1,0.1-4.7,0.7c-0.9,0.9-0.1,2.4,1,2.3c6.2-0.5,25.8-0.9,28-2.3c0.3-0.2,0.6-0.6,0.6-1
					C244.5,205.9,244,205.4,243,205.4z"/>
				<g>
					<path class="st12" d="M159.8,195c-1.3-7.8-4.2-13.7-10.2-18.6c0-0.6-0.6-0.9-1-0.8c-0.2-0.1-0.6-0.5-0.8-0.5
						c-0.4,0-0.7,0.5-0.2,0.9l0.4,0.3c0,0,0.7,3.8,0.2,8.3h0c-0.3,2.4-1,4.7-1.9,7l0,0c-0.6,1.5-1.4,2.8-2.2,4.1
						c-7.5-4.5-10.8-0.6-9.1,4c1.1,3,4.4,4.9,7.2,6.5c1.1,6.8-9.6,12.2-6.4,12.9c2.7,0.5,5.7,0,8.5-0.1c0.3,0,0.6-0.2,0.7-0.5l0.1,0
						l0,0c5.6-0.2,11.5-2.4,14.2-7.4c2-3.8,1.6-7.6,1.2-11.8c0.5,0.2,1.3-0.2,1.5-0.9C162.3,197,160.9,197.2,159.8,195z"/>
					<path class="st12" d="M243.6,229c-0.1-0.4-0.5-0.6-1-0.6l0-0.1c0.1-1-0.2-1.7-1.2-1.5c-0.1-0.8-0.1-0.9-0.8-1.2
						c0.1-0.4,0.1-0.8,0.1-1.1c0-0.6-0.7-0.9-1.1-0.5c-0.4,0.4-0.8,0.7-1.2,1.1c0.1-0.3,0.6-1.4,0.6-1.7c0.2-0.3,0.1-0.7-0.1-0.9
						c-0.3-0.3-0.7-0.3-1,0c-3.2,3.2-8.1,6-12.7,5.9c-1.3-1.4-1.8-2.6-2.2-4.2c0-0.1-0.1-0.2-0.2-0.3c0-0.9-1.1-0.9-1.2-0.1
						c0,1.3,0,2.7,0,3.9c0,1.3,0,2.6,0.1,3.9c-0.6,1.2-1.6,3-2.3,4.2c-0.8,1.3-1.7,2.6-2.8,4c-0.1,0.2-0.1,0.4,0.1,0.6
						c-0.2,4.5,3.5,6,6.4,5.2c0.3,2.3,4.2-2.8,4.8-3.7l0,0c0.6-0.8,1.1-1.4,1.6-1.9c4.2-0.7,13.6-4.2,14.2-9.4
						C243.8,230,243.7,229.4,243.6,229z"/>
					<path class="st15" d="M225.5,245.9c0.1-0.3,0-0.7-0.2-0.9c-0.9-1.1-2.7-2.5-3.8-3.2c-0.5-0.3-4.1-2.5-4.6-2.7
						c-0.1-0.1-0.3-0.1-0.5-0.1c-3.5,0-14.1,24.6-32.7,16.9c-9.9-4.2-20.1-16-38-23.8c0.1-0.1,0.3-0.4,0.2-0.7c0,0,0.2-0.7,0.3-1.7
						c0.2-2.1-0.3-7.7-0.5-10.9c0.1-0.5-0.2-0.9-0.7-0.9c0,0-1.3,0.3-1.7,0.3c-6.6,0.8-10-1.5-9.7,0.3c-0.1,0-0.1,0-0.2,0
						c-0.9-0.6-2,2-2.3,3c-1.2,3.9-0.2,10.5,0.3,10.9c-3.6,3.2-5,6.1-12.4,12.5c-7,6-7.9,7.8-10.5,13.4c0.2-0.9,0.4-1.8,0.5-2.7
						c0.1-0.8-0.9-0.9-1-0.3c-0.3,2-0.7,4-1.1,6c-0.2,0.3-0.4,0.5-0.5,0.7l0,0c-0.3,0.3-0.1,0.7,0.2,0.8
						c-6.2,28.9,3.1,32.8,16.1,32.7c1.8,5.6,4.8,14.5,8.4,19.1c0,0.3,0.2,0.6,0.5,0.7c22.5,6,42.2-2.2,39.2-4.6
						c-0.3-12.8-1.6-23.7-4-35c11.2,6.7,26,9.6,37.1,1.8C218.2,267.1,227.1,247.6,225.5,245.9z"/>
					<g>
						<path class="st8" d="M281.9,442.3c-1.7-0.8-1.8-0.9-4.4-1.8c1.5,0.8,3,1.5,4.6,2.2C282,442.5,282,442.4,281.9,442.3z"/>
						<path class="st8" d="M279.7,443.7c-5.4,0.7-10.3,1.4-15.2,0.8c-0.3-0.1-0.6,0-0.8,0.3c-0.1-0.2-0.4-0.3-0.6-0.2
							c-0.7,0.2-0.2,0.7,0.1,3.6c0.4,3,0.5,5.7,1.2,6.1c0.6,0.5,4.5,0.4,5.8,0.2c0.5-0.2,0.6-0.7,0.3-1.1c0.4-0.3,0.2-1.2,0.2-1.7
							c0.5,0.3,3.5,1.9,4,1.9c0.1,0,0.3-0.1,0.4-0.2c1,0.3,14.5-1,15.6-1.1c5.3-0.5,5.7-0.2,5.9-0.9
							C291.5,448,285.7,446.4,279.7,443.7z"/>
						<path class="st8" d="M185.3,441.1L185.3,441.1c-0.9-1.2-1.7-2.6-2.3-4.1l0,0c-0.2-0.4-0.3-0.8-0.4-1.2
							c0.9-0.2,0.5-1.6-0.4-1.3c-0.2-1-1.6-0.6-1.3,0.3c0.3,0.9,0.5,1.8,0.9,2.6c-4-2.7-10-2.3-14.6-0.7c-0.2-0.3-0.7-0.4-1,0.1
							c-0.8,2-1.9,5.2-2.4,7.5c-0.1,0.5,0.4,0.9,0.8,0.7c0.3,0.1,2.4,1,2.7,1c2.1,1.2,2.3,1.4,3.9-1.5c0.3,0.6,1.1,1.9,1.7,2.5
							c0.4,1,12,3.8,19.6,4.5c0.2,0.3,0.8,0.2,1.3,0.2c0.7,0,0.7,0,1.2,0.1c0.4,0.1,0.6-0.1,0.7-0.3
							C197.8,450.5,189.6,446.6,185.3,441.1z"/>
					</g>
					<path class="st34" d="M173.4,376.3c0-0.3-0.3-0.6-0.6-0.7c-0.8-0.5-2,0.1-1.8,1.4c1.6,10,4.5,19.3,5,29.3
						c0.1,1.7,2.5,1.5,2.4,0C178,396,175,386.3,173.4,376.3z"/>
					<path class="st8" d="M149.6,176.4c0-0.1,0-0.3-0.2-0.4c-0.5-1.4-16.6-6.6-24-3.9c-7.3,2.6-22.8,19.5-14.9,35.4
						c0.3,0.6,0.7,1.3,1.2,1.9c-1.6,2.9-7.3,3.8-10.8,4.4c-21.1,3.7-25.3,21-18.9,25.7c1.8,1.3,4.6,1.8,7.3,2.9
						c4.2,1.8,1.6,5.9,2.8,10.8c1.5,6.3,9.8,8.9,15.1,8.6c5.5-0.3,7-2.9,8.4-5.3c2.9-4.9,3.9-3.1,8.7-4.4
						c8.4-2.2,13.3-11.1,7.9-23.4c-2.8-6.9,0.6-8.6,0.9-9.7c4.2-0.4,9.5-4.7,10.5-9.1c0.5-2.2-0.5-4.4-1.3-4.8
						c-1.5-0.9-2.9-1.5-4.4-2.6l0,0c-4.3-3.4-4.1-8.9,0.7-8.4c1,0.1,1.9,0.4,2.9,0.7c0.4,0.1,2.5,0.8,2.9,0.8
						C145.4,195.8,150.8,189,149.6,176.4z"/>
					<path class="st3" d="M297,437.3c0.2-3-25.2-39.4-36.9-60.4c-1.2-2.2-2.4-4.4-3.5-6.4c-4.6-8.8-8.9-16.4-14.4-22.6
						c-18.3-20.5-37.1-10.1-69.2-34.9l0.1,0.1c-0.4-0.3-0.7-0.6-1.1-0.9c0.1-0.3-0.1-0.8-0.6-1c-0.2-0.6-0.8-0.9-1.4-0.7
						c-9.2,2.7-17.4,4.4-38.1,3.8c-0.6,0-1,0.6-0.8,1.1c1.2,27.4-10.4,55.7,53.8,53.2c-5.2,16.6-9.8,25.2-26.2,64.2l0.1-0.2
						c-0.4,0.8-0.9,1.6-0.2,2.1c0.1,0.1,0.2,0.1,0.4,0.1c10.3,6.6,36.4,4.7,35.6,1.9c1-0.6,18.6-37.3,22.7-66.6
						c18.4,32.7,39.5,75.2,41.4,75.7c0.5,0.1,1-0.1,1.2-0.5c0,0,0.8,0,0.8,0c4.7-0.2,9.6-0.4,14.4-1c14.6-1.5,21.8-5.1,22.1-6.1
						C297.5,438,297.4,437.6,297,437.3z"/>
					<path class="st8" d="M159.5,193.4c-0.2,0.1-0.3,0.1-0.5,0.2c-2.2-6.2-10.4-3.8-10.2,1.7c-0.4-0.1-3-0.6-4.8-1.3
						c-0.8-0.3-1.4,1-0.4,1.4c3.1,1.1,4.5,1.8,5.5,1.7c0.8,3,4,4.8,6.8,3.8c2-0.7,3.6-3,3.5-5.6c0.3-0.2,0.6-0.4,0.9-0.6
						C160.9,194.3,160.3,193.2,159.5,193.4z M152.9,199.6c-2.1-0.9-3.8-4-2-6.5c0.9-1.1,2.2-1.7,3.7-1.6
						C160,192.5,158.3,201.7,152.9,199.6z"/>
					<g>
						<path class="st20" d="M144.9,231.9c-3.3,0.7-6.5,0.1-9.9,0.1c-0.6,0-0.7,1,0,1c2.9,0,10.9,0.8,10.5-0.7
							C145.4,232,145.2,231.9,144.9,231.9z"/>
						<path class="st20" d="M133.2,221c0.4,7.6-0.4,8.8,0.6,8.8c0.3,0,0.5-0.2,0.5-0.5c0.1-2.8,0.1-5.6-0.1-8.3
							C134.1,220.3,133.1,220.4,133.2,221z"/>
						<path class="st20" d="M136.3,230.3c-0.1-2.9,0.2-5.8,0.3-8.7c0-0.6-0.9-0.7-1,0c-0.1,2.9-0.4,5.8-0.3,8.7
							C135.3,231,136.3,230.9,136.3,230.3z"/>
						<path class="st20" d="M139,231.1c0-3.7,0.1-7.4,0.2-11.1c0-0.6-0.9-0.7-1,0c-0.1,3.7-0.2,7.4-0.2,11.1
							C138.1,231.8,139,231.8,139,231.1z"/>
						<path class="st20" d="M141.7,231c0.2-3.3,0.1-6.6,0.2-9.9c0-0.6-0.9-0.7-1,0c-0.1,3.3-0.1,6.6-0.2,9.9
							C140.7,231.6,141.6,231.7,141.7,231z"/>
						<path class="st20" d="M143.2,229.1c0,0.3,0.2,0.5,0.5,0.5c0.3,0,0.5-0.2,0.5-0.5c0.1-2.6,0-5.2-0.2-7.7c0-0.7-1-0.6-1,0
							C143.2,223.9,143.3,226.5,143.2,229.1z"/>
						<path class="st20" d="M153.7,242C153.7,242,153.7,241.9,153.7,242C153.7,241.9,153.7,241.9,153.7,242z"/>
						<path class="st20" d="M162.7,272.3c-1.1-0.9-2-1.8-2.8-2.9c0,0,0,0,0,0c-1.7-2.2-3.1-4.8-4.2-7.4c0,0,0,0,0,0c0,0,0,0,0-0.1
							c0,0,0,0,0,0c-2.1-5-3.6-11.1-2.8-16.4c-0.1,0.3,0.2-1.7,0.9-3.5c0,0,0,0,0,0c0.1-0.1,0,0,0-0.1c0,0,0,0,0,0
							c0.6-1.4,1.3-2.4,2.2-3.2c0.3-0.3,0.1-0.8-0.3-0.8c-0.1,0-0.3,0-0.3,0.1c-8.2,7.8-0.9,31,9.1,36.4c0.2,0.1,0.5,0.1,0.7-0.2
							C165.3,273.7,164.4,273.5,162.7,272.3z"/>
						<path class="st20" d="M155.6,262C155.6,261.9,155.6,261.9,155.6,262C155.6,262,155.6,261.9,155.6,262z"/>
						<path class="st20" d="M159.8,269.4C159.8,269.4,159.8,269.3,159.8,269.4C159.8,269.4,159.8,269.3,159.8,269.4z"/>
						<path class="st20" d="M113.6,260.9c-0.1-0.6-1.1-0.4-0.9,0.3c2.4,11.3,5.8,18.7,9.4,33c0.2,0.6,1.1,0.4,0.9-0.3
							C119.5,280,116,272.2,113.6,260.9z"/>
					</g>
					<path class="st22" d="M140.3,200.4c-1.8-1.4-1.7-2.4-2.2-3.4c0.5-0.3,1-0.4,1.6-0.2c0.7,0.2,0.9-0.8,0.3-0.9
						c-2.1-0.5-3.6,0.8-3.6,2.9c0,0.6,1,0.6,1,0c0-0.4,0-0.5,0.1-0.8c0.8,2.1,3.4,4.6,3.9,3.6C141.6,201,140.8,200.8,140.3,200.4z"
						/>
					<g>
						<path class="st8" d="M153.7,195.1c0,1.9,2.9,1.9,2.9,0C156.6,193.2,153.7,193.2,153.7,195.1z"/>
						<path class="st8" d="M156,188.4c0-0.5-0.4-1-1-1c-1,0.1-2,0.2-2.9,0.5c-5,1.5-2.5,4.1-1.3,2.9
							C152.7,188.7,156,190.1,156,188.4z"/>
					</g>
					<path class="st33" d="M159.7,203.4c-1,0.3-1.8,0.1-2.6-0.3c-0.3-0.2-0.8-0.1-1,0.3c-0.5,0.8,1.4,2.2,4,1.5
						C161,204.5,160.6,203.1,159.7,203.4z"/>
					<path class="st35" d="M216.8,368.8c-1.3-0.1-2.6-0.2-3.9-0.2c-2.1-0.1-26.3-2-27.4-0.2c-0.1,0.2,0,0.5,0.2,0.7
						c0.2,0.1,0.5,0,0.7,0c7.9-1,14.7-0.1,30.4,0.7c0.3,0,0.5-0.2,0.5-0.5C217.3,369,217.1,368.8,216.8,368.8z"/>
				</g>
			</g>
			<g>
				<g>
					<path class="st34" d="M168.4,376.5c-0.7,0-1.2,0.6-1.2,1.2c-1,23.4-6,45.2-8.7,70.9c-0.2,1.3,2.2,1.9,2.4,0
						c2.9-27.3,7.7-47.1,8.7-70.9C169.6,377,169,376.5,168.4,376.5z"/>
					<path class="st34" d="M116,374.9c-0.3,3.8-0.8,7.6-1.3,11.4c-2.6,19.3-7.1,38.2-11.1,57.6c-0.1,0.3,0,0.6,0.1,0.9
						c0.6,1,2,0.7,2.2-0.3c4.8-23.4,10.4-46.5,12.4-69.6C118.5,373.6,116.2,373.1,116,374.9z"/>
					<path class="st34" d="M123.8,376.1c-0.1-1.8-2.5-1.4-2.4,0c1.1,16.4,4.7,33.2,6.6,47.9c0-0.3,0.8,5.5,1.3,11.5
						c0.1,0.8,0.6,1.2,1.2,1.2c0.6,0,1.3-0.6,1.2-1.2c-1.3-15.2-4.4-30.1-6.4-45.2C124.7,385.6,124.2,380.9,123.8,376.1z"/>
					<path class="st34" d="M115.6,366.2c-0.2-12.7,0.3-14-1.4-14c-0.6,0-1.2,0.6-1.2,1.2c0.2,4.3,0.1,8.5,0.2,12.8
						C113.2,367.8,115.7,367.7,115.6,366.2z"/>
					<path class="st34" d="M172.8,353.2c-0.8-0.8-2.2-0.1-2.1,0.9c0.6,5,0,10-0.1,15c0,1.5,2.4,1.7,2.4,0
						C173.2,365.1,174,354.4,172.8,353.2z"/>
				</g>
				<g>
					<path class="st0" d="M181.1,312.3l0-0.8c0-0.2-0.1-0.4-0.1-0.6c0-0.5-0.2-0.9-0.6-1.1c-3.4-1.8-6.8-3.2-10.4-4
						c-10.6-2.5-48.5-5.8-59.6,3.9c-0.6,0-1.1,0.4-1.2,1.2c-1.7,18.7,1.1,41.4,1.6,42.4c0,0.6,0.4,1.1,1.2,1.2
						c40.4,2.8,64.3,1.6,63.9,1.6c0.6,0,1.1-0.5,1.2-1.1c0.3-0.2,0.5-0.4,0.6-0.7C181.3,340.2,181.2,325.8,181.1,312.3z
						 M126.9,306.4L126.9,306.4L126.9,306.4C126.9,306.4,126.9,306.4,126.9,306.4C126.9,306.4,126.9,306.4,126.9,306.4
						C135.9,302.9,136.6,305.8,126.9,306.4L126.9,306.4l0.1,0C126.5,306.5,126.3,306.5,126.9,306.4z"/>
					<path class="st0" d="M176.3,366.9c-0.5-1.4-2.2-0.5-13-0.5c-17.1,0-33.6-2.8-51.1-2.5c-0.5,0-0.9,0.3-1.1,0.8
						c-0.6,0.4-0.5,1-0.6,1.7c-0.1,1.9-0.4,8.8,0.1,9.5c-0.1,0.7,0.4,1.3,0.9,1.3c21.4,3.4,43.1,1.4,64.5,1.8h0
						c0.7,0,1.2-0.6,1.2-1.2c0-0.3-0.1-0.5-0.3-0.8C176.6,368,177.7,367.5,176.3,366.9z"/>
				</g>
			</g>
		</g>
	</g>
	<g>
		<path class="st3" d="M457.6,113.2c-2.2-0.9-6.3-1.7-8.6-1.3c2.6-26.3-22-42.2-41.7-26.9c-0.7,0.5-1.3,1.1-1.9,1.8
			c-3.1,3.5-5.8,9.5-3.9,13.9c0.4,0.8,1.9,3,2.5,2.3c9.4,4.5,12.8,15.4,24.1,21.7c1.7,1,3.4,2.2,5.1,3.1c-0.1,1.1,4.5,2.6,10-3.7
			c0,12.8,22.4,13.2,21.7,0.2C464.8,119.5,461.5,114.9,457.6,113.2z"/>
		<g>
			<path class="st12" d="M424.8,400c-0.8,0-0.6,1-0.7,2.8c-2.2-2.8-7.1-4-9.4-1.2c0-0.7,0.1-1.7-0.6-1.7c-0.3,0-0.6,0.3-0.6,0.6
				c0.1,1.3,0.1,3,0.1,3c0.2,5.7,0.1,11.4,0.1,13.6c-0.1,0.2-0.1,0.5,0,0.7c0,0.2,0,0.2,0.1,0.4c-0.6,0.1-0.7,1-0.1,1.3
				c4.9,2.9,9.3,0.7,9.5-0.4c1.3-0.5,1.1-0.5,2.2-18.5c0-0.1,0-0.3-0.1-0.4C425.2,400.1,425,400,424.8,400z"/>
			<path class="st12" d="M454.5,382.9c0.1-0.4-0.1-0.6-0.4-0.8c-0.6-1.2-1.2-2.5-1.2-2.5l0,0c-0.2-0.6-0.4-1.5-1-1.3
				c-0.3,0.1-0.5,0.4-0.4,0.7c0.3,0.7,0.6,1.4,0.9,2.1c-3.4-1.4-6.6,2.9-7.7,6.8c-0.2-0.3-0.4-0.7-0.8-0.7c-0.5,0-0.7,0.6-0.5,0.9
				c4,5.5,9.8,15.1,10.4,11.9c2.7-0.8,5.4-1.9,6.5-4.5c0.1,0.1,0.4,0.1,0.6-0.1C462.1,394.6,457.8,389.2,454.5,382.9z"/>
		</g>
		<g>
			<path class="st18" d="M391.9,233.9c0,0.6,1,0.6,1,0C392.9,233.2,391.9,233.2,391.9,233.9z"/>
			<path class="st18" d="M396.3,232.3C396.3,232.3,396.3,232.3,396.3,232.3C396.3,232.3,396.3,232.3,396.3,232.3z"/>
			<path class="st18" d="M405.1,209c-0.7,0-0.5,0.5-2.6,8.6c-1.6,5.9-2.8,8.6-2.8,8.6c-0.9,2.1-2,4.2-3.3,6c0,0,0,0,0,0
				c0,0,0,0.1-0.1,0.1c0,0,0,0,0,0c-0.8,1-1.6,1.8-2.6,2.6c-0.4,0.3,0.1,1.1,0.7,0.7c6.9-5.5,8.9-17.8,11.2-26
				C405.7,209.4,405.5,209,405.1,209z"/>
		</g>
		<path class="st28" d="M464.9,370.7c-0.1,0.6-0.6,1-1,1.1c-0.2,0.6-0.4,1.2-0.7,1.8c-0.4,0.8-0.8,1.6-1.3,2.3
			c-0.9,1.3-1.9,2.5-3.1,3.6c-0.6,0.5-1.2,1.1-1.8,1.6c-1.4,1.1-2.8,2.1-4.3,3.1c-0.7,0.5-1.3,0.9-2,1.3c-0.9,0.6-1.8,1.2-2.6,1.8
			c-0.7,0.5-1.3,0.9-1.9,1.4c-1.2,0.9-2.3,1.8-3.2,2.9c0,0.7-0.6,4.4-0.8,5.5c-0.1,0.8-0.5,1.6-0.7,1.9c0.3,1.1-1.3,2.2-4.2,3
			c-0.7,0.2-1.5,0.4-2.4,0.6c-0.9,0.2-2,0.4-3.1,0.5c-0.8,0.1-1.6,0.2-2.4,0.3c-1.9,0.2-3.9,0.3-6,0.3c-0.8,0-1.6,0-2.5,0
			c-2.2,0-4.4-0.1-6.7-0.3c-0.8-0.1-1.6-0.1-2.4-0.2c-1.8-0.2-3.6-0.4-5.3-0.8c-0.8-0.1-1.6-0.3-2.3-0.5c-1.7-0.4-3.3-0.8-4.9-1.3
			c-0.1,0-0.1,0-0.2,0c-0.1,0-0.2-0.1-0.2-0.1c-0.3-0.1-0.4-0.3-0.5-0.6c-0.1-0.1-0.1-0.3-0.1-0.4c0.1-1.2,0.3-2.4,0.5-3.5l0.2-1.3
			c2.6-16.2,5.4-37.5,7-55.7c-23.9-41.1-4.8-65.4-3.8-100.4c0-0.4,0.3-0.7,0.7-0.7c0.3,0,0.5,0.1,0.6,0.3
			c8.3-11.5,39.1-9.6,42.9,3.2c0,0,0.1,0,0.1,0c0.4,0,0.7,0.3,0.7,0.7c1.9,16.9,2,28,1.6,38.4c-0.6,14.7-3.8,37-4.6,59.8
			c1.2,1.9,2.3,3.7,3.3,5.3C456,358.7,465.3,369.1,464.9,370.7z"/>
		<g>
			<path class="st8" d="M424.4,422.2c0-0.5,0.1-1.1,0.1-1.6c0-0.2-0.1-0.3-0.2-0.4c0-0.4,0.1-1.2-0.2-1.4c-0.3-0.7-0.8-0.5-1.5-0.2
				c0.1,0,0.1,0,0.2-0.1c-0.7,0.3-1.7,0.6-2.7,0.8c-0.4,0.1-0.8,0.1-1.2,0.1c-1.6,0-3.3-0.4-4.8-1c-0.1,0-0.1,0-0.2,0
				c-0.2,0-0.4,0.1-0.5,0.2c-6.5,0.6-14.2,4.1-18.1,6.6c-0.7,0.5-0.2,1.5,0.6,1.3c5.3,0.4,26.5,0,27.5-0.8c0.1,0,0.2,0.1,0.3,0.1
				c0.1,0,0.3-0.1,0.4-0.2c0.1-0.1,0.1-0.2,0.2-0.4c0-0.1,0-0.2,0-0.3c0.1,0,0.1-0.1,0.2-0.1c0.1-0.1,0.2-0.3,0.2-0.5l-0.1-1
				C424.5,422.9,424.4,422.5,424.4,422.2z"/>
			<path class="st8" d="M464.9,398.3c-0.1-0.3,0.1-0.3-0.2-0.7c-0.7-0.8-1.6-1.7-3.4-3.6c-0.4-0.4-1.1-0.2-1.2,0.4
				c-0.2,0.1-0.3,0.2-0.4,0.3c-0.3,0.5-0.6,1-0.9,1.5c-1.5,1.9-3.4,3-5.6,3.4c-0.3,0-0.5,0.4-0.5,0.8c-0.2,0.1-0.3,0.3-0.3,0.5
				c-0.1,1.3-0.2,2.3-0.3,3.3l0,0c-0.1,1-0.3,2-0.6,3c-0.2,0.9-0.5,1.8-0.9,2.7c-1.2,2.8-2.6,4.8-3.6,6.3c-0.4,0.6-1,1.2-0.6,1.7
				c0,0,0,0.1,0,0.2c0.1,0.3,0.4,0.5,0.7,0.4c1.9-0.6,3.9-1.6,5.8-2.9C462.3,409.2,465.5,399.4,464.9,398.3z"/>
		</g>
		<g>
			<path class="st7" d="M425.4,149.9C425.4,149.9,425.4,150,425.4,149.9C425.4,150,425.4,149.9,425.4,149.9z"/>
			<path class="st7" d="M425.3,150C425.3,150,425.3,150,425.3,150C425.3,150,425.3,150,425.3,150z"/>
			<path class="st7" d="M427.5,105.7C427.5,105.7,427.4,105.7,427.5,105.7C427.5,105.7,427.5,105.7,427.5,105.7z"/>
			<path class="st7" d="M442,109c-1.4-0.9-3.6-0.2-5.2,0.5c-3.7-1-6-1.3-9.3-3.8c0,0,0,0,0,0c-4.6-3.6-5.1-5.6-9.2-10
				c-0.6-0.9-1.3-1.8-1.9-2.6c-0.1-0.1-0.3-0.2-0.4-0.3c-0.4-0.5-0.8-0.2-1.3,0.1c-0.4,0-0.8,0.2-1,0.6c-4.8,2.9-6.7,3.9-6.7,3.9
				c-0.8,0.5-1.3,1-1.8,1.6c-0.2,0.3-0.4,0.7-0.6,1.1c-1,2.2-1.6,6.4-1.5,6.9c-0.8,6.9-2.9,19.8,6.7,25c1.6,0.9,3.5,1.4,5.8,1.7
				c2.4,0.2,4.9-0.1,7.2-0.9c-0.1,1.8-0.2,3.5-0.3,6c-0.4,0.4-1,0.7-0.8,1.2c-0.3,0.4-0.7,0.7-0.3,1.1c0,0,0.1,0.1,0.1,0.1
				c-0.3,0.5-0.7,1.1-0.2,1.4c-0.3,0.6-0.8,1.3-0.3,1.7c-0.1,0.2-0.1,0.4-0.2,0.6c-0.1,0.4,0.3,0.8,0.7,0.6c0,0.1,0.1,0.1,0.2,0.2
				c-0.1,0.5-1.1,5.6-1,6.1c0.6,1.2,3.5-0.9,4.5-1.7c0,0,0,0,0,0c0,0,0,0,0,0c0,0,0,0,0,0c0,0,0.1-0.1,0.8-0.7
				c0.6-0.2,1.1-0.5,1.6-0.9c0,0,0,0.1,0,0.1c-0.1,0.5,0.5,0.9,0.9,0.4c0,0,0,0,0,0c0.6-0.8,0.6-0.8,1.1-1.5c0.2,0.3,0.6,0.2,0.8,0
				c0.2,0.3,0.7,0.4,0.9-0.1c0-0.1,0.1-0.2,0.1-0.2c0.2,0.2,0.5,0.2,0.7,0c-0.1,0.7-0.1,1.5-0.2,2.2c0,0.3,0.2,0.5,0.5,0.5
				c0.2,0,0.5-0.2,0.5-0.5c0.1-0.9,0.2-1.7,0.2-2.6c0.1,0,0.1,0,0.1-0.1c0,0.9,0.1,1.9,0.1,2.8c0,0.3,0.2,0.5,0.5,0.5
				c0.2,0,0.5-0.2,0.5-0.5c-0.2-7.4-0.3-6.9-0.2-8.6c0.4-0.7,0.6-6.4,0.6-7.1c0.2-4.8,0.4-8.6,1.5-11.5c1-0.5,7.1-6.5,7.3-10.2
				C443.6,110.9,443.1,109.7,442,109z"/>
			<path class="st7" d="M406.2,171.4c-3.8,3.5-8.9,7.4-14,10.1c-0.5,0.3-0.1,1.1,0.5,0.8c0.4-0.2,0.6-0.3,1-0.6
				c-1.5,2.9-2.1,8.4,0.3,11.3c-0.4,0.1-0.7,0.2-1.1,0.3c-0.6,0.2-0.5,1,0.1,1c0,0,1.5-0.4,1.9-0.5c0.2,0,0.4,0,0.5-0.1
				c2.8-0.6,3.8-0.8,5.1-1.2c0.3,0,0.4-0.1,0.6-0.2l0,0c0.6-0.2,3.7-1.3,3.9-1.9c0.1-0.4-0.2-0.9-0.6-0.9c-0.1,0-0.2,0-0.3,0.1
				c-0.1,0.1-0.3,0.2-0.4,0.2c2.1-2.8,3.6-8.9,1.6-15.9c0.6-0.5,1.2-1.1,1.8-1.7c0.2-0.2,0.2-0.6,0-0.9
				C406.8,171.1,406.4,171.2,406.2,171.4z"/>
		</g>
		<path class="st36" d="M434.8,137.6c-1.4,1.5-6.4,7.3-10.2,7.5c-0.6,0.2-1.8,0.6-2.4,0.4c-1-0.5-0.2-5.7,0-6.8
			c-3.6,1-7.7,4.8-7.8,5.2c-3.4,3.7-9.1,24.5-10.4,29.4c-3.1,11.7-12.3,39.6-15,61.4c0,0.3,0.2,0.6,0.5,0.8c0,0.1,0.1,0.1,0.2,0.2
			c12.6,7.8,21.3-1,39.3,6c3.9,1.5,7.9,3.1,12.7,2.9c5.4-0.2,14.6-3,14.6-4.9c0.3-0.2,0.5-0.5,0.5-0.9
			C451.7,141.2,443.9,153.2,434.8,137.6z"/>
		<g>
			<path class="st37" d="M411.9,253.6c0.3-0.3,0.3-0.7,0.1-1.1c-1.7-3.6-3.6-7.1-5.2-10.7c-0.3-0.8-1.7-0.3-1.3,0.7
				c1.6,3.7,3.3,7.3,4.9,10.9c0,0.1,0.1,0.1,0.1,0.2c0,0,1.5,41-3.6,79.5c0-0.1,0-0.1,0-0.2c0,0.1-0.6,4.6-0.6,4.7
				c-0.1,0.7,1.2,0.9,1.3,0.2c1.3-9.4,2-13.9,2.5-18.6C413.1,292.3,412.5,254.5,411.9,253.6z"/>
			<path class="st37" d="M443.7,342.6c-0.3,0-0.5,0.2-0.5,0.5c-1.2,14-1.9,34-1.2,47.9c0,0.9,1.3,0.9,1.3,0c0-1.6,0-3.2,0-4.8
				c0-7-0.4-19.9,0.2-33.7C444,342.9,444.4,342.6,443.7,342.6z"/>
		</g>
		<g>
			<path class="st23" d="M393.6,167.7c-0.6-0.3-26.7,0.3-35.9,2.1c-0.2,0-0.4,0.2-0.5,0.5c-0.1,0.1-0.2,0.2-0.2,0.4
				c1.3,13.2,0.5,34,1.4,42.1c0.1,0.7,0.2,1.3,0.3,2c0.1,0.5,0.1,1.1,0.2,1.6c0,0.3,0.1,0.5,0.3,0.7c0.3,0.3,0.9,0.4,1.3,0.1
				c7.4,2.7,14.5,1.5,22.4,1.9c1.4,0.1,2.7,0.1,4,0.1c1.8,0,3.4-0.1,4.8-0.4c0.4-0.1,0.6-0.4,0.7-0.8
				C393.4,217,397.2,164.1,393.6,167.7z"/>
			<g>
				<path class="st1" d="M361.3,177.3c9.4-0.6,18.8-1.2,28.2-1.7c2.4-0.1,2-3.5,0-3.4c-9.4,0.5-18.8,1.1-28.2,1.7
					c-0.9,0.1-1.7,0.7-1.7,1.7C359.6,176.5,360.4,177.4,361.3,177.3z"/>
				<path class="st1" d="M390.2,177.9c-9.7,1.2-19.1-0.3-29.1,1.6c-1.9,0.4-1.6,3.7,0.9,3.3c9.2-1.7,27.5-0.1,29.4-1.9
					c0.3-0.3,0.5-0.7,0.5-1.2C391.9,178.6,390.9,177.8,390.2,177.9z"/>
				<path class="st1" d="M367.3,184.5c-2.2,0-2.3,3.4,0,3.4c6.1,0.1,12.3-0.9,18.5-0.4c1.3,0.1,2.4-1.7,1.2-2.9
					C385.5,183.1,373.3,184.6,367.3,184.5z"/>
				<path class="st1" d="M381.3,189c-2.8,0.4-5.6,0.4-8.3,0.8c-2.7,0.3-1.7,3.6,0,3.4c7-0.9,10-0.1,10-2.5c0-0.4-0.2-0.9-0.5-1.2
					C382.2,189.2,381.7,188.9,381.3,189z"/>
			</g>
			<path class="st38" d="M367.8,202.6c-1-0.3-3-0.3-4.8,1.2c-1.6,1.4-2.9,4.9-0.5,7.9c2.9,3.7,9.3,2.3,11.1-2
				C375.3,205.4,370.5,202.3,367.8,202.6z"/>
		</g>
		<g>
			<path class="st1" d="M419.3,240.7c0,30.5-1.6,65.2-6.3,108.1c-0.6,5.6-1.3,11.1-2,16.7c-3.1,23.1-3.9,31.9-4.5,36.9
				c-0.8-0.1-1.6-0.3-2.3-0.5c0.7-5.6,1-11.3,1.6-16.9c0.2-1.5,0.3-3,0.6-4.5c7.3-50.1,10.4-98,10.5-139.7c0-0.7,0.5-1.2,1.2-1.2
				C418.7,239.5,419.3,240,419.3,240.7z"/>
			<path class="st1" d="M425.9,242.8c-0.5,11.9-1.3,23.7-2.2,35.6c-0.8,10.9-1.7,21.8-2.4,32.6c-2.2,32.7-0.8,47.5-7.2,92.3
				c-0.8-0.1-1.6-0.1-2.4-0.2c0.3-1.8,0.5-3.6,0.7-5.4c2.5-18.7,4.4-37.9,4.9-57c1-34.4,4.7-64.9,6-97.9c0-0.7,0.5-1.2,1.2-1.2
				C425.4,241.6,426,242.1,425.9,242.8z"/>
			<path class="st1" d="M432.9,245.3c-0.6,11.1-1.4,22.2-2.1,33.3c-1.4,21.1-2.9,42.2-3.8,63.4c-0.7,16.4-0.4,18.1-1.4,31.7
				c-0.7,10-1.7,19.9-2.2,29.9c-0.8,0-1.6,0-2.5,0c0.1-3.8,1.1-12.3,2.4-31.5c0.4-5.3,0.6-10.6,0.8-15.8c0.4-15.9,1.3-32,2.3-47.6
				c1.3-21.1,2.9-42.2,4.1-63.4C430.6,243.6,433,243.9,432.9,245.3z"/>
			<path class="st1" d="M440.5,248c-0.2,11-0.8,21.9-1.6,32.9c-1.5,20.8-3.7,41.6-4.8,62.5c-1.1,19.9-1.3,39.8-2.3,59.7
				c-0.8,0.1-1.6,0.2-2.4,0.3c0.5-10,0.8-20.1,1.1-30.2c1.9-61,7-85.4,7.6-125.2C438.1,246.3,440.5,246.4,440.5,248z"/>
			<path class="st1" d="M440.4,332.2c-2.3,33.3-3.4,53-3.1,69.7c-0.7,0.2-1.5,0.4-2.4,0.6c-0.7-43.1,7.4-109.6,8.3-153.9
				c0-1.6,2.4-1.5,2.4,0C445,276.9,442.3,304.2,440.4,332.2z"/>
			<path class="st1" d="M407.7,328.6c-3-7.1-5.4-13.1-6.4-20.3c-2.6-20,4.1-40.6,4.6-61.2c0-0.7-0.6-1.2-1.2-1.2
				c-0.7,0-1.2,0.6-1.2,1.2c-0.5,21-7.3,41.1-4.5,61.8c1,7.1,3.7,13.8,6.4,20.3C406.1,331.1,408.1,329.8,407.7,328.6z"/>
			<path class="st1" d="M406.3,311.4c0,0.3,0.3,0.6,0.6,0.7c0.6,0.3,1.3,0.2,1.7-0.4c0.3-0.5,0.1-0.7-0.4-4.5
				c-2.3-17.7,1.6-34.6,1.3-52.4c0-1.6-2.4-1.6-2.4,0C407.3,274.3,402.7,291,406.3,311.4z"/>
			<path class="st1" d="M460.6,374.1C460.6,374.1,460.5,374.1,460.6,374.1C460.3,373.8,460.4,373.9,460.6,374.1z"/>
			<path class="st1" d="M463.2,373.7c-0.4,0.8-0.8,1.6-1.3,2.3c-0.5-0.6-0.9-1.2-1.4-1.8c0,0-0.1-0.1-0.1-0.2c0,0,0,0,0,0
				c-1.5-1.8-11.2-13.9-15.4-21.3c-0.3-0.6-0.1-1.3,0.4-1.7c0.2-0.1,0.4-0.2,0.6-0.2c0.4,0,0.8,0.2,1.1,0.6
				C451.7,359.4,457.6,366.3,463.2,373.7z"/>
			<path class="st1" d="M458.8,379.5c-0.6,0.5-1.2,1.1-1.8,1.6c-4.7-6.2-9.4-12.3-13.5-19c-0.5-0.8,0.1-1.8,1-1.8
				c0.4,0,0.8,0.2,1.1,0.6C449.6,367.4,454.2,373.5,458.8,379.5z"/>
			<path class="st1" d="M452.7,384.2c-0.7,0.5-1.3,0.9-2,1.3c-2.3-3.4-4.4-7-6.4-10.6c-0.3-0.6-0.1-1.3,0.4-1.7
				C446.5,372.2,446.3,374.6,452.7,384.2z"/>
			<path class="st1" d="M448.1,387.3c-0.7,0.5-1.3,0.9-1.9,1.4c-1-1.3-1.9-2.7-2.8-4.1c-0.4-0.6-0.1-1.3,0.4-1.7
				C445.1,382.2,445.4,383.5,448.1,387.3z"/>
		</g>
		<g>
			<path class="st39" d="M422.6,139.2c0-1.6-2.4-1.6-2.4,0C420.1,140.8,422.6,140.8,422.6,139.2z"/>
			<path class="st39" d="M421.1,141.6c0-1.6-2.4-1.6-2.4,0C418.6,143.2,421.1,143.2,421.1,141.6z"/>
			<path class="st39" d="M419.9,144.9c0-1.6-2.4-1.6-2.4,0C417.4,146.5,419.9,146.5,419.9,144.9z"/>
			<path class="st39" d="M418.8,148c0-1.6-2.4-1.6-2.4,0C416.3,149.6,418.8,149.6,418.8,148z"/>
			<path class="st39" d="M417.9,152.3c0-1.6-2.4-1.6-2.4,0C415.4,153.9,417.9,153.9,417.9,152.3z"/>
			<path class="st39" d="M414.9,155.8c0,1.6,2.4,1.6,2.4,0C417.4,154.2,414.9,154.2,414.9,155.8z"/>
			<path class="st39" d="M415.5,160.1c1.6,0,1.6-2.4,0-2.4C413.9,157.7,413.9,160.1,415.5,160.1z"/>
			<path class="st39" d="M416.4,162.8c0-1.6-2.4-1.6-2.4,0C414,164.4,416.4,164.4,416.4,162.8z"/>
			<path class="st39" d="M415,165.8c-1.6,0-1.6,2.4,0,2.4C416.6,168.3,416.6,165.8,415,165.8z"/>
			<path class="st39" d="M414.4,169.7c0,1.6,2.4,1.6,2.4,0C416.8,168.1,414.4,168.1,414.4,169.7z"/>
			<path class="st39" d="M417.1,169.2c0,1.6,2.4,1.6,2.4,0C419.5,167.6,417.1,167.6,417.1,169.2z"/>
			<path class="st39" d="M419.5,166.4c0,1.6,2.4,1.6,2.4,0C421.9,164.8,419.5,164.8,419.5,166.4z"/>
			<path class="st39" d="M421.9,162.8c0,1.6,2.4,1.6,2.4,0C424.3,161.2,421.9,161.2,421.9,162.8z"/>
			<path class="st39" d="M425.3,158.5c-1.6,0-1.6,2.4,0,2.4C426.9,160.9,426.9,158.5,425.3,158.5z"/>
			<path class="st39" d="M426.7,155.2c0,1.6,2.4,1.6,2.4,0C429.1,153.6,426.7,153.6,426.7,155.2z"/>
			<path class="st39" d="M429.1,150.9c0,1.6,2.4,1.6,2.4,0C431.5,149.3,429.1,149.3,429.1,150.9z"/>
			<path class="st39" d="M431,147.7c0,1.6,2.4,1.6,2.4,0C433.4,146.1,431,146.1,431,147.7z"/>
			<path class="st39" d="M432.8,144.8c0,1.6,2.4,1.6,2.4,0C435.2,143.2,432.8,143.2,432.8,144.8z"/>
			<path class="st39" d="M434,141.8c0,1.6,2.4,1.6,2.4,0C436.4,140.2,434,140.2,434,141.8z"/>
			<path class="st39" d="M436,138.3c0.8-0.8,0.2-2-0.9-2c-1.4,0-1.7,2-0.3,2.4c-0.2,0.2-0.3,0.5-0.3,0.8c0,1.6,2.4,1.6,2.4,0
				C436.9,138.9,436.5,138.4,436,138.3z"/>
		</g>
		<g>
			<path class="st8" d="M421.4,114.6c-1.4,1.6-4.2,2.3-3.9-0.6c0.1-0.7-0.3-1-0.7-1c-1.1,0-0.9,2.2-0.4,3.1c1,1.9,4.2,1.6,6-0.5
				C423.2,114.9,422,113.9,421.4,114.6z"/>
			<path class="st8" d="M406.9,111.7c-1,1.8-3,1.5-3-0.6c0-0.4-0.3-0.7-0.7-0.7c-1.5,0-0.6,4.3,2.3,4c1.2-0.1,2.1-0.9,2.7-1.9
				C408.7,111.6,407.4,110.9,406.9,111.7z"/>
		</g>
		<path class="st22" d="M410.2,112.1c0,0.4,0,0.7-0.1,1c-0.6,3.8-2.9,5-1.7,5.7c0.3,0.2,0.8,0.1,1-0.3c0.6-1,1.1-2,1.5-3
			C413,110.5,410.2,110.9,410.2,112.1z"/>
		<path class="st22" d="M439.4,110.8c-0.7,0.1-2,0.5-1.6,1.1c0.2,0.4,0.6,0.2,1,0c0.6-0.2,1.1-0.3,1.6-0.1c0,0-0.3,1.3-0.7,2.3
			c-0.6,1.3-1.3,2.3-2.2,3.2c-0.5,0.5,0.3,1.1,0.7,0.7c1.6-1.7,2.5-3.5,3-5.5c0.4,0.5,0.5,1,1,0.7
			C443.1,112.7,441.5,110.5,439.4,110.8z"/>
		<path class="st1" d="M414,124.3c-0.4,1-1.4,1.8-2.9,1.8c-1.4,0-2.8-0.7-3.6-1.9c-0.2-0.3-0.4-0.6-0.5-1c-0.2-0.5-0.4-1.9,0-2.3
			c0.1-0.3,0.3-0.4,0.6-0.3c1.8,0.5,3.8,1,5.5,0.7c0.3-0.1,0.6-0.1,0.8,0.2C414.4,121.6,414.6,123.1,414,124.3z"/>
		<g>
			<path class="st40" d="M414,124.3c-0.4,1-1.4,1.8-2.9,1.8c-1.4,0-2.8-0.7-3.6-1.9c1.7-1.8,4.4-1.5,3.5-1.5
				C412.4,122.8,413.5,123.3,414,124.3z"/>
			<path class="st40" d="M408.1,104.9c-1.7-0.1-3,0.3-4.1,0.8c-1,0.4-0.4,2.3,1,1.6c1.1-0.4,2-0.6,3-0.5
				C409.3,106.8,409.4,104.9,408.1,104.9z"/>
			<path class="st40" d="M423.6,109.3c-1-0.8-4-2.8-5.2-2.8c-1.1,0-1.4,1.5-0.3,1.9c3.6,1.1,4.9,3.9,5.8,2.3
				C424.2,110.2,424.2,109.7,423.6,109.3z"/>
		</g>
		<g>
			<path class="st7" d="M453.4,167.8c-2.9-8.6-7.1-17.4-17.1-12.7c-0.1,0.1-0.2,0.2-0.2,0.4c-10.6,7.1,1.6,39.7,3.8,50.6
				c0.1,0.4,0.2,0.9,0.2,1.3c0,0.1,0.1,0.2,0.2,0.3c-1,4.3-6.3,5.6-10.7,6.2l0.1,0c-10.7,1.3-23.6-0.8-31.2-4.5
				c-1.5-2.2-3.2-5.3-3.7-8.4c-0.1-0.4,0-0.9-0.4-1.1c0-0.6-0.9-0.7-1-0.1c-0.2,1.2-0.4,2.6-0.4,3.7c-1.5-2.2-2.3-4.1-3.1-6l0,0.1
				c-0.3-0.8-0.7-1.5-1-2.3c-0.6-1.5-2.5,1.4-0.4,6.4c-1.2-1.3-2.4-2.8-3.3-4.3c-0.1-0.2-0.4-0.3-0.6-0.3c-1,0.3-0.5,3.3,2,6.8
				c-0.2-0.1-0.3-0.3-0.5-0.4l0.1,0.1c-1.1-0.9-2.1-1.8-2.9-2.8l0,0.1l-0.1-0.1l0,0c-0.5-0.8-2.2-0.3-0.4,3.1
				c-1.7-0.3,0.3,4,1.5,5.2l0,0c3.9,6.1,7.4,6.7,9.2,7.5c7,5.6,17.7,9.1,26.5,10.8c20.9,4.1,34-4.6,37.6-14.5
				C458.9,212.5,463.2,197.4,453.4,167.8z"/>
			<path class="st7" d="M364.1,196.7c-1,0-1.8,0.1-2.6,0.2c0.3-0.2,2.5-1.5,2.8-1.6c0.4-0.2,0.3-0.8-0.2-0.9c-1.1,0-2.3,0-3.6,0.5
				c0,0,0.8-0.7,2.4-2.2c0.3-0.2,0.5-0.5,0.8-0.7c0.1-0.1,0.2-0.3,0.1-0.4c0-0.2-0.2-0.3-0.4-0.3c-0.4,0-0.8,0.1-1.2,0.2
				c-0.8,0.1-1.8,0.4-2.7,0.9c0.6-0.9,1.9-3,2.5-4.1c0.2-0.4-0.2-0.7-0.5-0.6c-2,0.5-3.5,2-4.7,3.6c-0.1,0-0.3,0.1-0.3,0.2
				c-0.2,0.3-0.3,0.6-0.5,0.9l-0.1,0.1l-0.1,0.1c-0.1,0.1-0.1,0.2,0,0.3c-1,3.2-0.6,7.7,2.7,7.6c0.1,0.1,0.3,0.1,0.5,0
				c0.1,0,0.2-0.1,0.3-0.1c0.1,0,0.3-0.1,0.3-0.3c1.7-1,3.3-1.6,4.7-2.4c0.2-0.1,0.3-0.3,0.2-0.5
				C364.5,196.9,364.4,196.7,364.1,196.7z"/>
		</g>
	</g>
</g>
<g id="DESIGNED_BY_FREEPIK">
</g>
</svg>
